<?xml version="1.0" encoding="UTF-8"?>
<svg version="1.1" xmlns="http://www.w3.org/2000/svg" width="500" height="500">
<path d="M0 0 C0.87411026 -0.0038269 1.74822052 -0.00765381 2.64881897 -0.01159668 C4.49725496 -0.01431826 6.3457293 -0.00693983 8.1940918 0.00976562 C11.02154663 0.03114708 13.84645313 0.00998662 16.67382812 -0.015625 C18.47005769 -0.01298126 20.26628567 -0.00785533 22.0625 0 C22.90739487 -0.00809692 23.75228973 -0.01619385 24.62278748 -0.02453613 C30.46453326 0.06860032 30.46453326 0.06860032 33.52856445 2.30761719 C34.99518532 4.38603368 36.18677413 6.32730934 37.23828125 8.640625 C37.58632812 9.39472656 37.934375 10.14882812 38.29296875 10.92578125 C38.81503906 12.09173828 38.81503906 12.09173828 39.34765625 13.28125 C39.71117187 14.07402344 40.0746875 14.86679688 40.44921875 15.68359375 C41.33997585 17.62919479 42.21990578 19.57974654 43.09765625 21.53125 C58.05699056 22.30524071 58.05699056 22.30524071 71.328125 16.171875 C74.97500953 13.53913597 78.75521541 11.45309326 82.78515625 9.46875 C83.82518799 8.95332642 83.82518799 8.95332642 84.88623047 8.42749023 C104.83312831 -1.2475586 129.97170913 -3.24157567 151.328125 3.2109375 C164.94012761 7.97866484 177.10542806 14.53643121 189.09765625 22.53125 C189.09765625 23.19125 189.09765625 23.85125 189.09765625 24.53125 C189.93296875 24.8715625 189.93296875 24.8715625 190.78515625 25.21875 C193.75925213 26.90675036 195.8177449 28.99801517 198.09765625 31.53125 C198.09765625 32.19125 198.09765625 32.85125 198.09765625 33.53125 C198.75765625 33.53125 199.41765625 33.53125 200.09765625 33.53125 C201.7890625 35.8671875 201.7890625 35.8671875 203.66015625 38.90625 C204.28019531 39.90398437 204.90023438 40.90171875 205.5390625 41.9296875 C208.05801712 46.13425838 208.51988967 48.54889567 208.09765625 53.53125 C206.22265625 56.46875 206.22265625 56.46875 204.09765625 58.53125 C203.43765625 58.53125 202.77765625 58.53125 202.09765625 58.53125 C202.09765625 59.19125 202.09765625 59.85125 202.09765625 60.53125 C200.04363823 62.0504941 198.00865067 63.42884052 195.84765625 64.78125 C195.21593506 65.17876465 194.58421387 65.5762793 193.93334961 65.98583984 C179.04254673 75.22660616 179.04254673 75.22660616 172.47265625 75.90625 C166.22575255 73.36121516 161.46576698 68.78356983 156.62109375 64.17578125 C150.86878926 58.72478795 145.53391518 55.28799397 138.09765625 52.53125 C137.00453125 52.098125 135.91140625 51.665 134.78515625 51.21875 C122.30228265 48.89143458 112.28187586 50.96616616 101.53515625 57.59375 C98.31480525 60.15189162 98.31480525 60.15189162 96.09765625 63.53125 C95.58940926 69.83851177 97.12565248 75.35134448 98.78515625 81.40625 C99.18963989 82.93209717 99.18963989 82.93209717 99.60229492 84.48876953 C100.83589274 89.09637513 102.11526317 93.67713045 103.57421875 98.21875 C107.46188952 110.33130025 108.20555216 121.54467443 108.00366211 134.21362305 C107.86716534 143.86620134 108.18016773 154.06764397 115.09765625 161.53125 C120.23172468 164.91952856 124.80055936 166.14960875 130.86328125 165.0625 C131.600625 164.8871875 132.33796875 164.711875 133.09765625 164.53125 C134.14179688 164.29921875 134.14179688 164.29921875 135.20703125 164.0625 C147.57560898 160.63179961 158.97982739 152.26291789 165.70898438 141.390625 C166.15697388 140.66842773 166.60496338 139.94623047 167.06652832 139.20214844 C167.40680054 138.65075195 167.74707275 138.09935547 168.09765625 137.53125 C166.12188599 137.55481567 166.12188599 137.55481567 164.10620117 137.57885742 C159.22540386 137.63310386 154.34463325 137.6675809 149.46362305 137.69604492 C147.34997071 137.7111436 145.23634977 137.73162426 143.12280273 137.75756836 C140.0869981 137.79390397 137.05160719 137.81096544 134.015625 137.82421875 C133.06866257 137.83970261 132.12170013 137.85518646 131.14604187 137.87113953 C129.82501213 137.87147942 129.82501213 137.87147942 128.47729492 137.87182617 C127.70230148 137.87848801 126.92730804 137.88514984 126.12882996 137.89201355 C123.52180453 137.42897105 122.691191 136.61636398 121.09765625 134.53125 C119.072907 128.40300894 118.78232277 122.69968149 118.84765625 116.28125 C118.85152344 115.36190674 118.85539063 114.44256348 118.859375 113.49536133 C118.94591859 106.66983673 119.55199684 100.19690619 121.09765625 93.53125 C127.05022078 92.00225344 132.58092289 91.23609992 138.71923828 91.2565918 C139.5286084 91.25148087 140.33797852 91.24636993 141.171875 91.24110413 C143.81648385 91.22733421 146.46082858 91.22815457 149.10546875 91.23046875 C150.95913793 91.22657637 152.81280623 91.22224059 154.66647339 91.21748352 C158.53793236 91.21004954 162.40930007 91.21029312 166.28076172 91.21557617 C171.23142794 91.22138299 176.18172152 91.20439689 181.13232613 91.1812315 C184.95513069 91.16647658 188.77784568 91.16562458 192.60067368 91.16874123 C194.42584855 91.16822943 196.25102863 91.1630183 198.07617569 91.15292931 C200.62931653 91.14054073 203.18173334 91.14736957 205.73486328 91.15893555 C206.48101898 91.15129181 207.22717468 91.14364807 207.99594116 91.13577271 C213.14230502 91.18709193 216.64655395 92.09437996 221.09765625 94.53125 C225.92545697 109.01465216 221.33003506 130.08069948 217.09765625 144.53125 C216.6490625 146.16320312 216.6490625 146.16320312 216.19140625 147.828125 C212.96221158 158.57354865 207.32263983 169.87469072 200.09765625 178.53125 C199.43765625 178.53125 198.77765625 178.53125 198.09765625 178.53125 C197.82824219 179.12421875 197.55882812 179.7171875 197.28125 180.328125 C190.51566122 192.92149817 172.03539902 202.82082021 158.83496094 207.29882812 C154.3046593 208.61909872 149.7253666 209.60900167 145.09765625 210.53125 C144.4826123 210.70543457 143.86756836 210.87961914 143.23388672 211.05908203 C140.66323113 211.62727036 138.25744305 211.6938451 135.625 211.7421875 C134.55958984 211.77054688 133.49417969 211.79890625 132.39648438 211.828125 C130.1830978 211.8795692 127.96953591 211.92402092 125.75585938 211.9609375 C119.28376823 212.14729645 113.55177921 212.94072843 107.35424805 214.84204102 C104.29509223 215.77636936 102.26585087 216.15111416 99.09765625 215.53125 C95.92308459 213.75393699 93.00952255 211.70720827 90.09765625 209.53125 C89.34742188 209.01175781 88.5971875 208.49226562 87.82421875 207.95703125 C87.25445312 207.48652344 86.6846875 207.01601563 86.09765625 206.53125 C86.09765625 205.87125 86.09765625 205.21125 86.09765625 204.53125 C85.43765625 204.53125 84.77765625 204.53125 84.09765625 204.53125 C84.09765625 203.87125 84.09765625 203.21125 84.09765625 202.53125 C83.56785156 202.325 83.03804687 202.11875 82.4921875 201.90625 C79.07887501 199.94624022 76.54439753 197.31476146 73.78515625 194.53125 C73.20773682 193.9547168 72.63031738 193.37818359 72.03540039 192.78417969 C67.96879771 188.63801926 64.58816751 184.33527383 61.5625 179.359375 C59.83946625 177.20902888 58.78471826 176.87796768 56.09765625 176.53125 C55.61554688 177.3253125 55.1334375 178.119375 54.63671875 178.9375 C54.00507813 179.9584375 53.3734375 180.979375 52.72265625 182.03125 C52.09617188 183.0521875 51.4696875 184.073125 50.82421875 185.125 C49.96957031 186.31609375 49.96957031 186.31609375 49.09765625 187.53125 C48.43765625 187.53125 47.77765625 187.53125 47.09765625 187.53125 C46.85144531 188.10198242 46.60523438 188.67271484 46.3515625 189.26074219 C44.88866628 191.9096781 43.17120306 193.71673546 41.03515625 195.859375 C40.23851562 196.65859375 39.441875 197.4578125 38.62109375 198.28125 C37.78835937 199.10625 36.955625 199.93125 36.09765625 200.78125 C35.26492187 201.62171875 34.4321875 202.4621875 33.57421875 203.328125 C32.77757812 204.1221875 31.9809375 204.91625 31.16015625 205.734375 C30.42925781 206.46301758 29.69835937 207.19166016 28.9453125 207.94238281 C27.09765625 209.53125 27.09765625 209.53125 25.09765625 209.53125 C25.09765625 210.19125 25.09765625 210.85125 25.09765625 211.53125 C20.33857768 214.8727307 17.18976256 216.22943393 11.375 215.28515625 C7.29038178 213.93295845 4.32726164 211.28591342 1.09765625 208.53125 C-0.38734375 207.54125 -0.38734375 207.54125 -1.90234375 206.53125 C-1.90234375 205.87125 -1.90234375 205.21125 -1.90234375 204.53125 C-2.56234375 204.53125 -3.22234375 204.53125 -3.90234375 204.53125 C-3.90234375 203.87125 -3.90234375 203.21125 -3.90234375 202.53125 C-4.56234375 202.53125 -5.22234375 202.53125 -5.90234375 202.53125 C-5.90234375 201.87125 -5.90234375 201.21125 -5.90234375 200.53125 C-6.47597656 200.3146875 -7.04960937 200.098125 -7.640625 199.875 C-10.64754152 198.08850729 -12.08835084 195.88516109 -14.08984375 193.03125 C-14.78464844 192.0515625 -15.47945313 191.071875 -16.1953125 190.0625 C-18.76728705 186.24867961 -19.51628657 184.1796742 -18.90234375 179.53125 C-16.16792151 174.34257174 -12.53055973 172.12441745 -7.08984375 170.21875 C-6.13464844 169.93386719 -5.17945313 169.64898437 -4.1953125 169.35546875 C-1.73324861 168.76841355 -1.73324861 168.76841355 -0.90234375 166.53125 C-11.66880216 166.13735518 -22.21662241 167.34864052 -32.90234375 168.53125 C-33.04260986 169.11664551 -33.18287598 169.70204102 -33.32739258 170.30517578 C-36.51487551 182.64635172 -41.33201059 198.96276559 -49.90234375 208.53125 C-57.24228475 212.2012205 -69.67805135 210.65482901 -77.77734375 210.71875 C-78.64399658 210.73172119 -79.51064941 210.74469238 -80.40356445 210.75805664 C-86.19273162 210.7663593 -91.29105209 209.96524676 -96.90234375 208.53125 C-97.69498995 199.58315513 -95.70726957 193.54397613 -91.90234375 185.53125 C-90.55739932 182.57814146 -89.23178756 179.616363 -87.90234375 176.65625 C-87.33990967 175.41210327 -87.33990967 175.41210327 -86.76611328 174.14282227 C-78.97512953 156.88413393 -71.37406224 139.52420744 -64.44165039 121.90161133 C-62.48137533 116.92780271 -60.37217433 112.05803801 -58.10546875 107.21484375 C-56.63927055 103.94446009 -55.33390718 100.61746361 -54.02734375 97.28125 C-51.27963894 90.30637444 -48.16221064 83.53489092 -44.95214844 76.76220703 C-42.88358579 72.36627087 -40.86353948 67.94797412 -38.83984375 63.53125 C-38.3816626 62.53174316 -37.92348145 61.53223633 -37.45141602 60.50244141 C-34.72731898 54.54932423 -32.02054844 48.58858484 -29.328125 42.62109375 C-29.02305527 41.94495026 -28.71798553 41.26880676 -28.40367126 40.57217407 C-26.91298315 37.26705919 -25.42396269 33.96120448 -23.93725586 30.65429688 C-22.26738444 26.94276483 -20.58701857 23.2360827 -18.90234375 19.53125 C-18.59659424 18.85652649 -18.29084473 18.18180298 -17.97583008 17.4866333 C-17.04519373 15.43782911 -16.10753481 13.39237839 -15.16796875 11.34765625 C-14.88532166 10.7234227 -14.60267456 10.09918915 -14.3114624 9.45603943 C-13.54443834 7.79730931 -12.72523729 6.16298458 -11.90234375 4.53125 C-11.52360107 3.74161865 -11.1448584 2.9519873 -10.75463867 2.13842773 C-7.64946134 -0.55583645 -3.914646 -0.03742576 0 0 Z M11.09765625 68.53125 C8.16496335 74.1959438 5.70115271 79.89518742 3.41015625 85.84375 C0.56878121 93.09092935 -2.49662861 100.18864986 -5.83984375 107.21875 C-6.42415161 108.44815308 -6.42415161 108.44815308 -7.02026367 109.70239258 C-9.75690497 115.38581122 -9.75690497 115.38581122 -10.90234375 116.53125 C-10.90234375 118.18125 -10.90234375 119.83125 -10.90234375 121.53125 C-4.63234375 121.86125 1.63765625 122.19125 8.09765625 122.53125 C10.57669029 117.57318191 11.72097846 114.06024615 12.47265625 108.78125 C13.58896901 101.60269485 15.29446307 94.76428418 17.56005859 87.86035156 C19.1726857 82.6001445 19.44606739 77.91462745 18.09765625 72.53125 C16.40848994 69.92018869 16.40848994 69.92018869 14.09765625 68.53125 C13.10765625 68.53125 12.11765625 68.53125 11.09765625 68.53125 Z " fill="#F8F8F8" transform="translate(191.90234375,137.46875)"/>
<path d="M0 0 C10.89 0 21.78 0 33 0 C34.65 3.815625 36.3 7.63125 38 11.5625 C38.52207031 12.75174072 39.04414063 13.94098145 39.58203125 15.16625977 C40.19111328 16.60183228 40.19111328 16.60183228 40.8125 18.06640625 C41.23144531 19.03521729 41.65039062 20.00402832 42.08203125 21.00219727 C44.19262597 27.89474848 42.52114381 33.42637079 40.2265625 39.9609375 C39.94275726 40.7921109 39.65895203 41.6232843 39.36654663 42.47964478 C38.76807469 44.22437219 38.16435403 45.96730715 37.55566406 47.70849609 C36.622166 50.38311986 35.70841334 53.06391668 34.796875 55.74609375 C34.21209084 57.44310621 33.6261927 59.13973529 33.0390625 60.8359375 C32.76502594 61.64002045 32.49098938 62.44410339 32.20864868 63.27255249 C30.23094721 68.8845264 30.23094721 68.8845264 28 70 C27.70754395 69.3387915 27.41508789 68.67758301 27.11376953 67.99633789 C25.7908276 65.01538921 24.45806147 62.03893615 23.125 59.0625 C22.66480469 58.02158203 22.20460938 56.98066406 21.73046875 55.90820312 C21.28574219 54.91884766 20.84101563 53.92949219 20.3828125 52.91015625 C19.97434082 51.99371338 19.56586914 51.07727051 19.14501953 50.13305664 C18.18463112 47.85208697 18.18463112 47.85208697 16 47 C12.76521444 54.06054156 9.58833243 61.14598744 6.44213867 68.24633789 C4.3036778 73.07179777 2.15306984 77.89156404 -0.0078125 82.70703125 C-0.5330249 83.88072266 -1.0582373 85.05441406 -1.59936523 86.26367188 C-2.63009786 88.56693543 -3.66331802 90.869088 -4.69946289 93.16992188 C-7.65427898 99.783994 -10.3831242 106.44163327 -12.9152832 113.22924805 C-14 116 -14 116 -16 120 C-5.44 120 5.12 120 16 120 C16.6097561 144.08536585 16.6097561 144.08536585 10 154 C8.20297241 154.39872742 8.20297241 154.39872742 6.00927734 154.43237305 C5.18857758 154.45216721 4.36787781 154.47196136 3.52230835 154.49235535 C2.63580597 154.49874527 1.74930359 154.50513519 0.8359375 154.51171875 C-0.07127045 154.52966995 -0.97847839 154.54762115 -1.91317749 154.56611633 C-4.81707072 154.62039427 -7.720798 154.65417073 -10.625 154.6875 C-12.59116902 154.72065767 -14.55731609 154.75514587 -16.5234375 154.79101562 C-21.34883888 154.87613065 -26.17418955 154.94285806 -31 155 C-31.36762451 155.85118408 -31.73524902 156.70236816 -32.11401367 157.5793457 C-33.50169733 160.79096675 -34.89031887 164.00217907 -36.27954102 167.21313477 C-36.87626108 168.59285939 -37.47262598 169.97273768 -38.06860352 171.3527832 C-38.93408272 173.35670603 -39.80091436 175.36003955 -40.66796875 177.36328125 C-41.18641357 178.56251221 -41.7048584 179.76174316 -42.23901367 180.99731445 C-44.44792959 186.0181347 -46.73018823 191.00641411 -49 196 C-61.21 196 -73.42 196 -86 196 C-82.6264308 185.8792924 -82.6264308 185.8792924 -80.9140625 181.94921875 C-80.54337646 181.09239502 -80.17269043 180.23557129 -79.79077148 179.3527832 C-79.2137146 178.03346802 -79.2137146 178.03346802 -78.625 176.6875 C-77.81592679 174.82052021 -77.0073291 172.95333426 -76.19921875 171.0859375 C-75.81556152 170.20131836 -75.4319043 169.31669922 -75.03662109 168.40527344 C-73.80732322 165.5529318 -72.61664265 162.68590564 -71.4375 159.8125 C-69.15407231 154.29809979 -66.72566296 148.85282264 -64.29272461 143.40332031 C-58.42570065 130.24836314 -52.67036845 117.04386949 -47.125 103.75 C-42.41573368 92.479795 -37.41734321 81.33772171 -32.42675781 70.18994141 C-31.15243894 67.34082258 -29.88368786 64.48931884 -28.6171875 61.63671875 C-24.18530978 51.68506756 -19.57856109 41.83071577 -14.80444336 32.03808594 C-12.75343796 27.8037034 -10.80113858 23.58821863 -9.11328125 19.1953125 C-6.44451573 12.63439173 -3.16758554 6.33517108 0 0 Z " fill="#1C1C1C" transform="translate(187,145)"/>
<path d="M0 0 C29.04 0 58.08 0 88 0 C88 30.94004626 82.89103002 57.92999806 61.4375 81.0625 C45.4367923 96.34160715 22.76527341 106.3227383 0.625 106.0625 C-0.11105469 106.05798828 -0.84710938 106.05347656 -1.60546875 106.04882812 C-3.40368158 106.03715142 -5.20185197 106.01922011 -7 106 C-7 101.90068732 -5.34442111 100.75122243 -2.6875 97.6875 C3.36781117 90.70762392 3.36781117 90.70762392 5.4375 81.9375 C4.94702921 77.52326292 3.84614701 76.25193431 1 73 C1.7528125 72.87625 2.505625 72.7525 3.28125 72.625 C17.85238604 69.7956532 32.66980468 63.16769028 41.57421875 50.81640625 C44.92770296 45.16684277 46.73692389 39.22345931 49 33 C24.745 32.505 24.745 32.505 0 32 C0 21.44 0 10.88 0 0 Z " fill="#1F1F1F" transform="translate(319,237)"/>
<path d="M0 0 C2.5625 0.3125 2.5625 0.3125 4.18676758 1.40307617 C7.14220111 5.50501861 6.20202366 11.53322731 6.22827148 16.45385742 C6.24984514 18.60952638 6.32997104 20.75801291 6.41210938 22.91210938 C6.60835708 33.0287931 6.60835708 33.0287931 3.84057617 36.42602539 C1.7109375 37.9296875 1.7109375 37.9296875 -0.48852539 39.17407227 C-9.51339993 44.44564811 -12.14578087 66.80206115 -14.63037109 76.21972656 C-14.89672363 77.2403418 -15.16307617 78.26095703 -15.4375 79.3125 C-15.7257666 80.40272461 -16.0140332 81.49294922 -16.31103516 82.61621094 C-16.58608887 83.6787207 -16.86114258 84.74123047 -17.14453125 85.8359375 C-17.39307861 86.79161621 -17.64162598 87.74729492 -17.89770508 88.73193359 C-18.57399703 91.52564044 -18.57399703 91.52564044 -18.4375 95.3125 C-13.16340713 82.3516973 -8.81709271 69.3533674 -5.22851562 55.82128906 C-3.58371254 49.75068985 -1.90736114 44.57870518 1.5625 39.3125 C3.5425 39.8075 3.5425 39.8075 5.5625 40.3125 C5.65544224 52.24814896 5.72638772 64.18371091 5.76974869 76.11964893 C5.79056652 81.66282302 5.81877779 87.20574834 5.86425781 92.7487793 C5.90792293 98.10451875 5.9316807 103.46001988 5.94200897 108.81592369 C5.94936336 110.85273677 5.96372426 112.88953775 5.98542023 114.92624855 C6.17416681 133.38985816 3.41525089 144.23921687 -9.68209839 157.75921631 C-11.76968624 159.88502812 -13.88066201 161.98619907 -15.99975586 164.08056641 C-17.63788852 165.70024332 -19.26767791 167.32798084 -20.89648438 168.95703125 C-21.944839 170.00047595 -22.99365071 171.04346165 -24.04296875 172.0859375 C-24.76651802 172.80781754 -24.76651802 172.80781754 -25.50468445 173.54428101 C-32.12303834 180.07036233 -32.12303834 180.07036233 -35.8125 180.75 C-41.81706444 179.74923926 -46.29567423 174.81307694 -50.4375 170.625 C-50.95787842 170.09970703 -51.47825684 169.57441406 -52.0144043 169.03320312 C-60.32862277 160.46522466 -60.32862277 160.46522466 -62.4375 155.3125 C-62.37890625 153.29296875 -62.37890625 153.29296875 -61.4375 151.3125 C-59.3203125 149.48828125 -59.3203125 149.48828125 -56.5625 147.625 C-50.46868577 143.33562819 -50.46868577 143.33562819 -44.5 138.875 C-43.62472656 138.21628906 -42.74945313 137.55757812 -41.84765625 136.87890625 C-34.63744356 129.20125675 -35.10065823 120.7741713 -35.28060913 110.84597778 C-35.51556145 93.56225587 -32.49277045 80.33359351 -25.67114258 64.37915039 C-23.98516454 60.1880619 -22.71474918 55.91055328 -21.43139648 51.58227539 C-19.4215301 44.97010628 -17.02927715 38.48159062 -14.70507812 31.97460938 C-12.49264798 25.68407119 -10.61790325 19.43868487 -9.13916016 12.93432617 C-7.81491804 7.98615775 -5.68910038 0.72937184 0 0 Z " fill="#1A1A1A" transform="translate(242.4375,165.6875)"/>
<path d="M0 0 C4.91942912 8.32948795 7.755111 17.04256198 10.60864258 26.22924805 C13.39683241 35.18602255 16.35303211 44.07454348 19.3973999 52.94723511 C19.91653772 54.46027422 20.43451784 55.97371114 20.95123291 57.48757935 C23.80551716 65.84805095 26.75660758 74.14053441 30.01293945 82.35449219 C31.85993373 87.30478405 32.1332648 91.64451658 32.140625 96.9140625 C32.15896528 98.49610801 32.1785367 100.07813963 32.19921875 101.66015625 C32.22804907 104.13516564 32.24999688 106.60928503 32.25048828 109.08447266 C32.26582237 120.00891362 32.41373219 129.03241698 40.2890625 137.4453125 C41.44535156 138.27675781 41.44535156 138.27675781 42.625 139.125 C43.48222656 139.76308594 44.33945312 140.40117187 45.22265625 141.05859375 C47.16167435 142.4139974 49.10756717 143.75959588 51.05859375 145.09765625 C52.04988281 145.78730469 53.04117188 146.47695313 54.0625 147.1875 C54.98160156 147.79980469 55.90070313 148.41210938 56.84765625 149.04296875 C59 151 59 151 60.0546875 153.40625 C59.97638994 157.11979164 58.47633118 158.5371966 56.0625 161.3125 C55.23621094 162.26769531 54.40992188 163.22289062 53.55859375 164.20703125 C50.15009828 167.92775532 46.64070017 171.50756364 43 175 C42.46761719 175.54140625 41.93523437 176.0828125 41.38671875 176.640625 C38.83275928 179.1442247 36.8979251 179.95823604 33.3125 180.125 C26.18790594 177.70532655 21.18542899 171.40320336 16.5234375 165.7109375 C14.82872712 163.80764738 13.00686617 162.20887902 11.0625 160.5625 C2.23731364 153.01486443 -7.15766842 142.95571364 -8.17955399 130.87780952 C-8.24471563 128.47228691 -8.24754075 126.07453646 -8.22705078 123.66821289 C-8.22734283 122.76010864 -8.22763489 121.85200439 -8.22793579 120.91638184 C-8.22654999 117.93504048 -8.2110242 114.95395359 -8.1953125 111.97265625 C-8.1915797 109.89757931 -8.18873399 107.8225006 -8.18673706 105.74742126 C-8.17912161 100.30092453 -8.15949107 94.85453543 -8.1373291 89.40808105 C-8.11682564 83.84433447 -8.10772573 78.2805704 -8.09765625 72.71679688 C-8.0762432 61.81115078 -8.04213251 50.90558436 -8 40 C-6.68 40 -5.36 40 -4 40 C-0.08221383 46.08082111 1.80858274 52.33351334 3.8125 59.25 C6.28667261 67.54438025 8.85825313 75.7606027 11.875 83.875 C12.30389526 85.03177246 12.30389526 85.03177246 12.74145508 86.21191406 C14.00570111 89.56248866 15.29859608 92.84496942 17 96 C16.40329896 93.16491285 15.79787653 90.33214711 15.1875 87.5 C14.9390332 86.31277344 14.9390332 86.31277344 14.68554688 85.1015625 C13.54237319 79.83864971 11.94368214 75.02028397 10 70 C9.70420764 68.69289869 9.43068152 67.38040352 9.1875 66.0625 C8.20675674 61.34833911 6.69646812 56.85601872 5.125 52.3125 C4.88031982 51.58748291 4.63563965 50.86246582 4.38354492 50.11547852 C2.37075799 44.41225494 0.40906234 39.34667136 -5.09301758 36.27099609 C-8 34 -8 34 -8.72875977 30.74780273 C-8.71643311 29.48911377 -8.70410645 28.2304248 -8.69140625 26.93359375 C-8.69003159 26.25829117 -8.68865692 25.58298859 -8.6872406 24.88722229 C-8.67820234 23.46412271 -8.65462806 22.0410503 -8.61743164 20.6184082 C-8.56257558 18.44050077 -8.55590306 16.26641749 -8.55664062 14.08789062 C-8.44525778 3.62750653 -8.44525778 3.62750653 -6.63647461 1.07836914 C-4.37886512 -0.40930222 -2.64190545 -0.21420855 0 0 Z " fill="#1A1A1A" transform="translate(260,166)"/>
<path d="M0 0 C0.7439502 0.27376465 1.48790039 0.5475293 2.25439453 0.82958984 C20.12521383 7.43581337 37.02280915 18.1381793 47 35 C47.65234375 37.2265625 47.65234375 37.2265625 48 39 C39.45499212 47.50479608 29.42178085 54.84464735 18 59 C17.62230469 58.38253906 17.24460937 57.76507813 16.85546875 57.12890625 C8.78351127 44.70905598 -3.30122921 35.77967128 -17.8425293 32.3815918 C-28.55342579 30.48715576 -40.28893065 30.93335512 -50 36 C-51.33998047 36.68835938 -51.33998047 36.68835938 -52.70703125 37.390625 C-57.95353874 40.30961892 -61.38115821 43.25027015 -65 48 C-65.66 48 -66.32 48 -67 48 C-67.47626831 46.72153198 -67.47626831 46.72153198 -67.9621582 45.41723633 C-69.14914146 42.23816481 -70.34053906 39.06082031 -71.53491211 35.88452148 C-72.04969669 34.51278626 -72.56274328 33.14039743 -73.07397461 31.76733398 C-73.81161343 29.7871293 -74.55559248 27.80940518 -75.30078125 25.83203125 C-75.74591064 24.64327393 -76.19104004 23.4545166 -76.6496582 22.22973633 C-77.8825132 19.28100394 -79.27597069 16.68452831 -81 14 C-61.16805263 -5.83194737 -25.31286411 -9.92935553 0 0 Z " fill="#1F1F1F" transform="translate(345,149)"/>
<path d="M0 0 C2.5625 0.3125 2.5625 0.3125 4.18676758 1.40307617 C7.14220111 5.50501861 6.20202366 11.53322731 6.22827148 16.45385742 C6.24984514 18.60952638 6.32997104 20.75801291 6.41210938 22.91210938 C6.60859962 33.03323987 6.60859962 33.03323987 3.8449707 36.4128418 C1.71875 37.90625 1.71875 37.90625 -0.47973633 39.14770508 C-7.43195839 43.28401278 -9.36395583 57.23980863 -11.3125 64.6875 C-12.03955879 67.55849888 -12.74376121 70.43317705 -13.4375 73.3125 C-14.9225 72.8175 -14.9225 72.8175 -16.4375 72.3125 C-16.4375 71.6525 -16.4375 70.9925 -16.4375 70.3125 C-19.95573667 72.08418347 -23.32426995 73.88745765 -26.4375 76.3125 C-27.27689269 79.5732041 -27.27689269 79.5732041 -26.4375 82.3125 C-27.9225 82.8075 -27.9225 82.8075 -29.4375 83.3125 C-30.0975 82.9825 -30.7575 82.6525 -31.4375 82.3125 C-29.95693813 77.14174985 -28.37598355 72.04216922 -26.5 67 C-25.06024633 63.123989 -23.77943444 59.23424759 -22.59375 55.2734375 C-20.19834161 47.4226546 -17.46558252 39.70309998 -14.70507812 31.97460938 C-12.49264798 25.68407119 -10.61790325 19.43868487 -9.13916016 12.93432617 C-7.81491804 7.98615775 -5.68910038 0.72937184 0 0 Z " fill="#1C1C1C" transform="translate(242.4375,165.6875)"/>
<path d="M0 0 C0.33 1.32 0.66 2.64 1 4 C-0.98 4.99 -0.98 4.99 -3 6 C-2.67 10.29 -2.34 14.58 -2 19 C-0.68 19.33 0.64 19.66 2 20 C2.144375 20.763125 2.28875 21.52625 2.4375 22.3125 C2.9632594 25.08172908 2.9632594 25.08172908 4 28 C8.27717389 28.75479539 11.80811428 29.3174498 16 28 C16.66 27.34 17.32 26.68 18 26 C19.32 26 20.64 26 22 26 C22.33 25.34 22.66 24.68 23 24 C27.94766054 22.04394816 32.83707374 20.27902458 38 22 C38.495 20.515 38.495 20.515 39 19 C39.495 20.485 39.495 20.485 40 22 C39.67 22.66 39.34 23.32 39 24 C40.010625 23.649375 41.02125 23.29875 42.0625 22.9375 C49.33736195 20.90053865 58.43415146 23.48652298 64.97265625 27.0859375 C66.35137522 28.00508348 67.68275467 28.99473383 69 30 C69.99 29.505 69.99 29.505 71 29 C71.495 31.97 71.495 31.97 72 35 C70.62328125 34.27683594 70.62328125 34.27683594 69.21875 33.5390625 C67.97939148 32.90060508 66.73979523 32.26260898 65.5 31.625 C64.89929688 31.30789062 64.29859375 30.99078125 63.6796875 30.6640625 C52.67583629 25.04507465 39.72356081 24.19794988 27.671875 26.6875 C24.97197741 27.61317917 22.52938019 28.68032338 20 30 C19.10667969 30.45890625 18.21335937 30.9178125 17.29296875 31.390625 C12.04646126 34.30961892 8.61884179 37.25027015 5 42 C4.34 42 3.68 42 3 42 C2.52373169 40.72153198 2.52373169 40.72153198 2.0378418 39.41723633 C0.85085854 36.23816481 -0.34053906 33.06082031 -1.53491211 29.88452148 C-2.04969669 28.51278626 -2.56274328 27.14039743 -3.07397461 25.76733398 C-3.81161343 23.7871293 -4.55559248 21.80940518 -5.30078125 19.83203125 C-5.74591064 18.64327393 -6.19104004 17.4545166 -6.6496582 16.22973633 C-7.8825132 13.28100394 -9.27597069 10.68452831 -11 8 C-9.92130607 7.03644756 -8.83681257 6.07938583 -7.75 5.125 C-6.84507812 4.32449219 -6.84507812 4.32449219 -5.921875 3.5078125 C-4.02581254 2.0202513 -2.18709995 0.99677564 0 0 Z " fill="#414342" transform="translate(275,155)"/>
<path d="M0 0 C0.99 0.99 1.98 1.98 3 3 C2.26306388 4.7083519 1.52611249 6.41669722 0.7890625 8.125 C0.15542217 9.63068 -0.43031679 11.15647637 -1 12.6875 C-2.59404053 16.37371872 -4.97221721 19.3671454 -8 22 C-8.66 22 -9.32 22 -10 22 C-10.66 23.65 -11.32 25.3 -12 27 C-12.66 27 -13.32 27 -14 27 C-14.66 27.66 -15.32 28.32 -16 29 C-18.30477074 30.08260791 -20.64777339 31.03492798 -23.00390625 32 C-25.16679652 32.83411484 -25.16679652 32.83411484 -26 35 C-26.99 35 -27.98 35 -29 35 C-29 35.66 -29 36.32 -29 37 C-31.475 37.495 -31.475 37.495 -34 38 C-34 38.66 -34 39.32 -34 40 C-35.485 39.505 -35.485 39.505 -37 39 C-37.07347656 39.88751953 -37.07347656 39.88751953 -37.1484375 40.79296875 C-37.96033994 49.37393768 -37.96033994 49.37393768 -40 53 C-41.485 53.495 -41.485 53.495 -43 54 C-43.72886396 55.84462187 -43.72886396 55.84462187 -44.0625 58 C-44.47265625 60.1875 -44.47265625 60.1875 -45 62 C-45.99 62.495 -45.99 62.495 -47 63 C-47 64.65 -47 66.3 -47 68 C-44.36 68 -41.72 68 -39 68 C-39 68.33 -39 68.66 -39 69 C-44.28 69 -49.56 69 -55 69 C-55 64.90068732 -53.34442111 63.75122243 -50.6875 60.6875 C-44.63218883 53.70762392 -44.63218883 53.70762392 -42.5625 44.9375 C-43.05297079 40.52326292 -44.15385299 39.25193431 -47 36 C-46.2471875 35.87625 -45.494375 35.7525 -44.71875 35.625 C-30.22125729 32.80995287 -15.04577455 26.17532974 -6.390625 13.67578125 C-5.1279194 11.4883295 -4.02926997 9.30539736 -3 7 C-2.52433594 5.95005859 -2.52433594 5.95005859 -2.0390625 4.87890625 C-1.33103764 3.26473948 -0.66061135 1.63414387 0 0 Z " fill="#3A3A3A" transform="translate(367,274)"/>
<path d="M0 0 C3.45558768 3.45558768 4.78283643 8.21737496 6.625 12.6875 C7.25535156 14.15993164 7.25535156 14.15993164 7.8984375 15.66210938 C8.29546875 16.62310547 8.6925 17.58410156 9.1015625 18.57421875 C9.46588379 19.44651123 9.83020508 20.31880371 10.20556641 21.2175293 C12.1484077 28.02225034 10.48247076 33.53650489 8.2265625 39.9609375 C7.94275726 40.7921109 7.65895203 41.6232843 7.36654663 42.47964478 C6.76807469 44.22437219 6.16435403 45.96730715 5.55566406 47.70849609 C4.622166 50.38311986 3.70841334 53.06391668 2.796875 55.74609375 C2.21209084 57.44310621 1.6261927 59.13973529 1.0390625 60.8359375 C0.62800766 62.04206192 0.62800766 62.04206192 0.20864868 63.27255249 C-1.76905279 68.8845264 -1.76905279 68.8845264 -4 70 C-6.31 64.72 -8.62 59.44 -11 54 C-8.525 53.505 -8.525 53.505 -6 53 C-5.34 52.34 -4.68 51.68 -4 51 C-3.67 51.33 -3.34 51.66 -3 52 C-2.80664062 51.43410156 -2.61328125 50.86820313 -2.4140625 50.28515625 C-2.15367187 49.55167969 -1.89328125 48.81820312 -1.625 48.0625 C-1.36976563 47.33160156 -1.11453125 46.60070312 -0.8515625 45.84765625 C0 44 0 44 2 43 C2.39213038 40.44508177 2.39213038 40.44508177 2.5 37.5 C2.65625 34.46875 2.65625 34.46875 3 32 C3.66 31.67 4.32 31.34 5 31 C4.98839844 30.08476562 4.97679687 29.16953125 4.96484375 28.2265625 C4.95582031 27.03804687 4.94679687 25.84953125 4.9375 24.625 C4.92589844 23.44164062 4.91429687 22.25828125 4.90234375 21.0390625 C5 18 5 18 6 16 C5.01 15.67 4.02 15.34 3 15 C2.15625 13.29296875 2.15625 13.29296875 1.5 11.1875 C0.05461001 7.00111138 -1.21375169 4.02071332 -5.1875 1.75 C-5.785625 1.5025 -6.38375 1.255 -7 1 C-3.625 0.375 -3.625 0.375 0 0 Z " fill="#464747" transform="translate(219,145)"/>
<path d="M0 0 C0.87914062 0.30808594 1.75828125 0.61617187 2.6640625 0.93359375 C4.45918587 1.57823427 6.23407351 2.27921368 8 3 C7.67 4.32 7.34 5.64 7 7 C5.68 6.67 4.36 6.34 3 6 C3 5.34 3 4.68 3 4 C1.35 3.67 -0.3 3.34 -2 3 C-2 2.34 -2 1.68 -2 1 C-2.721875 1.185625 -3.44375 1.37125 -4.1875 1.5625 C-7.12826973 2.01995307 -9.14103058 1.73516357 -12 1 C-12 0.34 -12 -0.32 -12 -1 C-14.97 -1 -17.94 -1 -21 -1 C-21 -1.66 -21 -2.32 -21 -3 C-22.546875 -2.7525 -22.546875 -2.7525 -24.125 -2.5 C-28 -2 -28 -2 -31.1875 -2.1875 C-34.13816838 -2.30083469 -34.13816838 -2.30083469 -36 0 C-38 2 -38 2 -40.9375 2.375 C-43.95828709 2.0051077 -46.2568934 1.2908737 -49 0 C-49.33 0.66 -49.66 1.32 -50 2 C-50.7425 2.0825 -51.485 2.165 -52.25 2.25 C-56.29626427 3.35352662 -57.52561966 5.67726068 -60 9 C-61.65 8.67 -63.3 8.34 -65 8 C-65.433125 8.8971875 -65.433125 8.8971875 -65.875 9.8125 C-67 12 -67 12 -69 15 C-70.00281704 20.0498489 -70.00281704 20.0498489 -69 25 C-69.99 25 -70.98 25 -72 25 C-72.66 20.71 -73.32 16.42 -74 12 C-72.68 11.01 -71.36 10.02 -70 9 C-69.68160156 8.33097656 -69.36320312 7.66195312 -69.03515625 6.97265625 C-66.15747534 1.48877375 -56.71484576 -0.61171957 -51.10546875 -2.421875 C-35.37268811 -6.74182219 -15.20091673 -5.80966543 0 0 Z " fill="#343434" transform="translate(345,149)"/>
<path d="M0 0 C0.99 0.66 1.98 1.32 3 2 C-2.06898573 10.09327148 -8.21748592 16.6244893 -14.98950195 23.27075195 C-16.70217618 24.95190608 -18.40360876 26.64383626 -20.10351562 28.33789062 C-21.19729068 29.42250664 -22.29166999 30.50651371 -23.38671875 31.58984375 C-23.89095871 32.08983383 -24.39519867 32.58982391 -24.91471863 33.10496521 C-31.75598 39.80861231 -31.75598 39.80861231 -35.4375 40.375 C-38.56788987 39.91689417 -40.47171101 38.87815754 -43 37 C-43 36.34 -43 35.68 -43 35 C-41.02 34.01 -39.04 33.02 -37 32 C-37 32.66 -37 33.32 -37 34 C-32.97488434 32.78310457 -29.40742883 31.50546238 -26 29 C-26 28.01 -26 27.02 -26 26 C-25.34 26 -24.68 26 -24 26 C-23.5359375 25.071875 -23.5359375 25.071875 -23.0625 24.125 C-21 20 -21 20 -17.5625 18.5625 C-13.80931887 17.29809012 -13.80931887 17.29809012 -12 14 C-11.34 14.33 -10.68 14.66 -10 15 C-9.67 12.69 -9.34 10.38 -9 8 C-8.38125 7.896875 -7.7625 7.79375 -7.125 7.6875 C-4.63473516 7.12474627 -4.63473516 7.12474627 -3 4 C-2.34 4 -1.68 4 -1 4 C-0.67 2.68 -0.34 1.36 0 0 Z " fill="#3B3B3B" transform="translate(242,306)"/>
<path d="M0 0 C1.63784562 2.45676844 2.64261119 4.38486343 3.69140625 7.08984375 C3.99626953 7.87423828 4.30113281 8.65863281 4.61523438 9.46679688 C4.92783203 10.28212891 5.24042969 11.09746094 5.5625 11.9375 C5.87896484 12.74896484 6.19542969 13.56042969 6.52148438 14.39648438 C9.00960947 20.83602682 10.14245301 26.02729578 10.2109375 32.984375 C10.23901624 34.57553094 10.26768076 36.16667663 10.296875 37.7578125 C10.33800874 40.25032143 10.37492193 42.74264112 10.40136719 45.23535156 C10.42918988 47.65208833 10.47506444 50.06797329 10.5234375 52.484375 C10.52669037 53.21799255 10.52994324 53.95161011 10.53329468 54.7074585 C10.65809202 60.03512892 11.91901464 64.09161141 14 69 C13.01 69 12.02 69 11 69 C10.34 67.68 9.68 66.36 9 65 C8.34 65 7.68 65 7 65 C6.83071761 62.31264212 6.6645047 59.62515116 6.5 56.9375 C6.45230469 56.18533203 6.40460938 55.43316406 6.35546875 54.65820312 C5.89252652 47.01965633 5.9240626 40.395527 8 33 C7.34 33 6.68 33 6 33 C6 29.37 6 25.74 6 22 C5.01 21.67 4.02 21.34 3 21 C2.03192531 18.66048617 1.83416658 17.46734872 2.6875 15.0625 C3.28074927 12.74514407 3.28074927 12.74514407 1.125 10.3125 C-0.4143649 8.6340718 -0.4143649 8.6340718 -2 7 C-2.04063832 5.33382885 -2.042721 3.66611905 -2 2 C-1.34 2 -0.68 2 0 2 C0 1.34 0 0.68 0 0 Z " fill="#5A5A5A" transform="translate(282,230)"/>
<path d="M0 0 C0.66 0.33 1.32 0.66 2 1 C1.34 1.66 0.68 2.32 0 3 C-0.82406207 5.45427182 -1.55940183 7.88313361 -2.25 10.375 C-2.69486733 11.92721099 -3.14019876 13.47928902 -3.5859375 15.03125 C-3.93350098 16.25328125 -3.93350098 16.25328125 -4.28808594 17.5 C-7.46954428 28.67219939 -10.78669044 39.76402984 -14.75 50.6875 C-15.19061768 51.91799072 -15.19061768 51.91799072 -15.64013672 53.17333984 C-17.75634733 58.87817367 -17.75634733 58.87817367 -20 60 C-19.38879125 51.86826619 -17.43964204 44.22816864 -15.3125 36.375 C-15.13359222 35.70936035 -14.95468445 35.0437207 -14.77035522 34.35791016 C-7.90433816 8.92725251 -7.90433816 8.92725251 0 0 Z " fill="#EDEDED" transform="translate(243,202)"/>
<path d="M0 0 C0.99 0 1.98 0 3 0 C2.690625 0.845625 2.38125 1.69125 2.0625 2.5625 C0.88646844 5.97403938 0.88646844 5.97403938 0.625 9.5625 C-0.08586671 13.47226692 -1.45133369 15.04025848 -4 18 C-4 18.99 -4 19.98 -4 21 C-4.63514826 23.34210921 -5.2986716 25.67684969 -6 28 C-6.66 28 -7.32 28 -8 28 C-7.938125 28.928125 -7.87625 29.85625 -7.8125 30.8125 C-8 34 -8 34 -9.375 35.5625 C-9.91125 36.036875 -10.4475 36.51125 -11 37 C-12.19027984 39.59915538 -12.19027984 39.59915538 -13 42 C-13.66 42 -14.32 42 -15 42 C-15.20625 42.66 -15.4125 43.32 -15.625 44 C-17.62814249 48.37049271 -20.57847894 53.78923947 -25 56 C-23.67269768 51.75928097 -22.05917164 47.84652316 -20.1015625 43.859375 C-19.25851563 42.12880859 -19.25851563 42.12880859 -18.3984375 40.36328125 C-17.80770797 39.15864993 -17.21655991 37.95422376 -16.625 36.75 C-13.13763671 29.64294044 -9.7220119 22.57879574 -6.86279297 15.19335938 C-5.61595562 12.02369704 -4.19398512 8.9598773 -2.75 5.875 C-2.22921875 4.75867188 -1.7084375 3.64234375 -1.171875 2.4921875 C-0.78515625 1.66976562 -0.3984375 0.84734375 0 0 Z " fill="#323232" transform="translate(186,146)"/>
<path d="M0 0 C15.13744685 4.78905951 29.89167385 17.29662961 38 31 C38.65234375 33.2265625 38.65234375 33.2265625 39 35 C37.40112446 36.48488441 35.79571095 37.96273145 34.1875 39.4375 C33.29417969 40.26121094 32.40085937 41.08492187 31.48046875 41.93359375 C29 44 29 44 26 45 C25.67 44.01 25.34 43.02 25 42 C27 39 27 39 29.125 38.3125 C30.053125 38.1578125 30.053125 38.1578125 31 38 C31.83796731 33.34462607 32.0161692 29.62921525 31 25 C30.34 25 29.68 25 29 25 C28.67 24.01 28.34 23.02 28 22 C26.28478222 20.95181136 24.56532598 19.90588547 22.7890625 18.96484375 C21 18 21 18 18 16 C16.67432801 15.31822584 15.34246312 14.64808564 14 14 C14 12.68 14 11.36 14 10 C10.67406051 8.57459736 7.5488061 7.67139575 4 7 C3.34 6.67 2.68 6.34 2 6 C2 5.34 2 4.68 2 4 C1.34 4 0.68 4 0 4 C0 2.68 0 1.36 0 0 Z " fill="#3C3C3C" transform="translate(354,153)"/>
<path d="M0 0 C0.99 0.33 1.98 0.66 3 1 C-9.19156489 17.34188485 -25.72528691 30.28495044 -46 35 C-46.495 33.515 -46.495 33.515 -47 32 C-46.01 32 -45.02 32 -44 32 C-44 31.34 -44 30.68 -44 30 C-43.01 30 -42.02 30 -41 30 C-41 29.34 -41 28.68 -41 28 C-40.2575 27.71125 -39.515 27.4225 -38.75 27.125 C-36.43260203 26.17697356 -34.22082885 25.15154089 -32 24 C-32 24.66 -32 25.32 -32 26 C-28.34683329 24.75023244 -27.21934164 24.32901247 -25 21 C-24.38125 20.855625 -23.7625 20.71125 -23.125 20.5625 C-20.24909631 19.80123138 -18.96011144 18.17012338 -17 16 C-16.34 16.33 -15.68 16.66 -15 17 C-14.773125 16.195625 -14.54625 15.39125 -14.3125 14.5625 C-13.879375 13.716875 -13.44625 12.87125 -13 12 C-10.375 11.1875 -10.375 11.1875 -8 11 C-8 10.34 -8 9.68 -8 9 C-7.34 9 -6.68 9 -6 9 C-5.896875 8.401875 -5.79375 7.80375 -5.6875 7.1875 C-4.90175967 4.68741714 -4.03081147 3.62464918 -2 2 C-1.34 2 -0.68 2 0 2 C0 1.34 0 0.68 0 0 Z " fill="#383838" transform="translate(387,305)"/>
<path d="M0 0 C0.66 0.33 1.32 0.66 2 1 C1.65855957 1.7528125 1.31711914 2.505625 0.96533203 3.28125 C-6.64020771 20.07713541 -14.02924052 36.92821546 -21 54 C-21.99 53.67 -22.98 53.34 -24 53 C-23.74688554 48.78142561 -23.32945642 46.00615639 -20.5 42.875 C-18.01749671 40.02012122 -17.32488082 38.68198266 -17 35 C-16.34 35 -15.68 35 -15 35 C-15.185625 34.0925 -15.37125 33.185 -15.5625 32.25 C-15.96076493 29.29146053 -16.07057322 27.72509547 -15 25 C-14.34 24.34 -13.68 23.68 -13 23 C-12.11808812 21.70597976 -11.2663493 20.39113305 -10.4375 19.0625 C-10.00308594 18.37285156 -9.56867188 17.68320313 -9.12109375 16.97265625 C-7.85917262 14.90053836 -7.85917262 14.90053836 -7 12 C-6.34 12 -5.68 12 -5 12 C-5.28875 11.319375 -5.5775 10.63875 -5.875 9.9375 C-6.02681206 6.36991658 -5.3378595 5.8092257 -3.0625 3.1875 C-2.05559763 2.11178881 -1.03885944 1.04488181 0 0 Z " fill="#3C3C3C" transform="translate(193,209)"/>
<path d="M0 0 C-0.28367868 2.23019727 -0.57727388 4.45913454 -0.875 6.6875 C-1.03742188 7.92886719 -1.19984375 9.17023438 -1.3671875 10.44921875 C-1.93115075 13.61367924 -2.49643 16.16634885 -4 19 C-4.99 19.33 -5.98 19.66 -7 20 C-7.72886396 21.84462187 -7.72886396 21.84462187 -8.0625 24 C-8.47265625 26.1875 -8.47265625 26.1875 -9 28 C-9.66 28.33 -10.32 28.66 -11 29 C-11 30.65 -11 32.3 -11 34 C-8.36 34 -5.72 34 -3 34 C-3 34.33 -3 34.66 -3 35 C-8.28 35 -13.56 35 -19 35 C-19 30.90068732 -17.34442111 29.75122243 -14.6875 26.6875 C-8.63218883 19.70762392 -8.63218883 19.70762392 -6.5625 10.9375 C-7.04320237 6.61117868 -7.96934836 5.03065164 -11 2 C-9.5422647 1.664061 -8.08378894 1.33133376 -6.625 1 C-5.81289063 0.814375 -5.00078125 0.62875 -4.1640625 0.4375 C-2 0 -2 0 0 0 Z " fill="#3E3E3E" transform="translate(331,308)"/>
<path d="M0 0 C0.99 0 1.98 0 3 0 C3.76674992 20.02069242 0.74404393 37.51754849 -7 56 C-7.66 55.67 -8.32 55.34 -9 55 C-9.43034975 48.75992861 -8.87215007 46.1249045 -5 41 C-3.08323879 37.06559542 -2.56030159 33.32232658 -2 29 C-1.67 28.01 -1.34 27.02 -1 26 C-1.2784375 24.2675 -1.2784375 24.2675 -1.5625 22.5 C-2 19 -2 19 0 16 C0.55872012 11.75372709 -0.61494302 9.4782081 -3 6 C-2.34 5.67 -1.68 5.34 -1 5 C-0.34444881 2.47266765 -0.34444881 2.47266765 0 0 Z " fill="#363636" transform="translate(404,238)"/>
<path d="M0 0 C7.59 0 15.18 0 23 0 C23.6097561 24.08536585 23.6097561 24.08536585 17 34 C15.68 34 14.36 34 13 34 C13.33 33.01 13.66 32.02 14 31 C14.66 31 15.32 31 16 31 C16.12375 29.88625 16.2475 28.7725 16.375 27.625 C17 24 17 24 19 22 C18.77289324 19.98848295 18.53928901 17.97655761 18.2265625 15.9765625 C17.97286301 13.76325312 18.2178162 12.08582347 19 10 C18.34 10 17.68 10 17 10 C17 7.36 17 4.72 17 2 C11.39 1.67 5.78 1.34 0 1 C0 0.67 0 0.34 0 0 Z " fill="#404040" transform="translate(180,265)"/>
<path d="M0 0 C4.95 0.33 9.9 0.66 15 1 C15 1.33 15 1.66 15 2 C11.37 2.33 7.74 2.66 4 3 C4.020625 4.588125 4.04125 6.17625 4.0625 7.8125 C4.10335303 10.95818308 4.00496852 12.98509443 3 16 C3.16896632 18.53027066 3.51014521 21.01393491 3.84375 23.52734375 C4 26 4 26 3 30 C26.265 30.495 26.265 30.495 50 31 C50 31.33 50 31.66 50 32 C33.5 32 17 32 0 32 C0 21.44 0 10.88 0 0 Z " fill="#474747" transform="translate(319,237)"/>
<path d="M0 0 C0.99 0.66 1.98 1.32 3 2 C2.4449637 5.97776012 1.57855819 9.31669755 0 13 C-0.52808475 14.35135533 -1.0483951 15.70576463 -1.5625 17.0625 C-1.81128906 17.71347656 -2.06007812 18.36445313 -2.31640625 19.03515625 C-3.32775939 21.94207415 -3.96478933 24.69014608 -4.3125 27.75 C-5.05909434 31.27935507 -6.34549463 33.92667767 -8.0625 37.0703125 C-9.02132226 39.04388832 -9.53782508 40.86079037 -10 43 C-10.33333333 44.33333333 -10.66666667 45.66666667 -11 47 C-12.32 46.67 -13.64 46.34 -15 46 C-13.51943813 40.82924985 -11.93848355 35.72966922 -10.0625 30.6875 C-8.18301405 25.61360257 -6.58034838 20.48317677 -5.015625 15.3046875 C-3.43808831 10.17162581 -1.72276986 5.08583655 0 0 Z " fill="#363636" transform="translate(226,202)"/>
<path d="M0 0 C0.33 1.32 0.66 2.64 1 4 C-0.98 4.99 -0.98 4.99 -3 6 C-2.74256727 8.52284073 -2.46948683 11.04238144 -2.1875 13.5625 C-2.11724609 14.26697266 -2.04699219 14.97144531 -1.97460938 15.69726562 C-1.40354145 20.65413518 -0.14153588 24.49179241 2 29 C2.52083333 30.25 3.04166667 31.5 3.5625 32.75 C4.91453659 36.05675543 4.91453659 36.05675543 7 39 C6.34 39.99 5.68 40.98 5 42 C4.34 42 3.68 42 3 42 C2.52373169 40.72153198 2.52373169 40.72153198 2.0378418 39.41723633 C0.85085854 36.23816481 -0.34053906 33.06082031 -1.53491211 29.88452148 C-2.04969669 28.51278626 -2.56274328 27.14039743 -3.07397461 25.76733398 C-3.81161343 23.7871293 -4.55559248 21.80940518 -5.30078125 19.83203125 C-5.74591064 18.64327393 -6.19104004 17.4545166 -6.6496582 16.22973633 C-7.8825132 13.28100394 -9.27597069 10.68452831 -11 8 C-9.92130607 7.03644756 -8.83681257 6.07938583 -7.75 5.125 C-6.84507812 4.32449219 -6.84507812 4.32449219 -5.921875 3.5078125 C-4.02581254 2.0202513 -2.18709995 0.99677564 0 0 Z " fill="#4B4C4C" transform="translate(275,155)"/>
<path d="M0 0 C-0.43393282 4.84269023 -2.41020627 6.84097812 -5.875 10.125 C-7.20144531 11.39730469 -7.20144531 11.39730469 -8.5546875 12.6953125 C-9.76511719 13.83613281 -9.76511719 13.83613281 -11 15 C-11.56332031 15.56976563 -12.12664062 16.13953125 -12.70703125 16.7265625 C-15.21344435 19.19511437 -17.17003355 19.96139691 -20.6875 20.125 C-25.80592878 18.3866657 -29.17863685 14.72795205 -33 11 C-32.67 10.01 -32.34 9.02 -32 8 C-30.35 8.33 -28.7 8.66 -27 9 C-27 9.99 -27 10.98 -27 12 C-26.401875 12.12375 -25.80375 12.2475 -25.1875 12.375 C-23 13 -23 13 -20 15 C-16.13841047 14.09622373 -12.73087006 12.94093699 -10 10 C-9.66602213 6.87413125 -9.66602213 6.87413125 -10 4 C-9.4225 3.896875 -8.845 3.79375 -8.25 3.6875 C-5.0961478 2.72382294 -3.27642941 0 0 0 Z " fill="#2F2F2F" transform="translate(314,326)"/>
<path d="M0 0 C0.66 0 1.32 0 2 0 C1.48446121 6.49850211 0.53332291 12.66226532 -1 19 C-1.66 19 -2.32 19 -3 19 C-4.21747741 21.34130272 -5.28966465 23.68967775 -6.3125 26.125 C-7.62701213 29.20776448 -9.03646952 32.23503931 -10.5 35.25 C-10.9021875 36.08015625 -11.304375 36.9103125 -11.71875 37.765625 C-12.94445042 39.90312696 -14.17399916 41.36509227 -16 43 C-16.66 42.67 -17.32 42.34 -18 42 C-17.45472656 40.81148438 -16.90945312 39.62296875 -16.34765625 38.3984375 C-10.57094675 25.72661241 -5.18818327 12.92319176 0 0 Z " fill="#373737" transform="translate(143,241)"/>
<path d="M0 0 C0.66 0.33 1.32 0.66 2 1 C1.625 3.4375 1.625 3.4375 1 6 C0.01 6.495 0.01 6.495 -1 7 C-1.66 6.67 -2.32 6.34 -3 6 C-3.2475 6.61875 -3.495 7.2375 -3.75 7.875 C-5 10 -5 10 -7.0625 10.875 C-9.29414533 11.89396567 -9.29414533 11.89396567 -10 14.75 C-10 18.96025632 -8.4643841 20.66583328 -6 24 C-5.25 26.375 -5.25 26.375 -5 28 C-5.99 28 -6.98 28 -8 28 C-10.0078125 25.98828125 -10.0078125 25.98828125 -12.125 23.3125 C-12.82882813 22.44238281 -13.53265625 21.57226562 -14.2578125 20.67578125 C-16.00021483 17.99967005 -16.62660829 16.13988482 -17 13 C-11.37992202 8.60280936 -5.72554976 4.25906017 0 0 Z " fill="#383838" transform="translate(197,305)"/>
<path d="M0 0 C-2.37468983 8.25744417 -2.37468983 8.25744417 -5 11.375 C-7.62288727 14.81753954 -8.25738357 18.19610902 -9.19140625 22.37890625 C-10.05547482 25.17982419 -11.13690361 26.76336201 -13 29 C-13.89984788 30.24711312 -14.79591719 31.4969647 -15.6875 32.75 C-16.450625 33.8225 -17.21375 34.895 -18 36 C-18.66 35.67 -19.32 35.34 -20 35 C-19.65219482 34.21874756 -19.30438965 33.43749512 -18.94604492 32.63256836 C-17.64292752 29.70484149 -16.34024307 26.77692246 -15.0378418 23.84887695 C-14.47648902 22.58708227 -13.91496897 21.32536198 -13.35327148 20.0637207 C-12.54105234 18.23929602 -11.72950559 16.41457204 -10.91796875 14.58984375 C-10.43094482 13.49534912 -9.9439209 12.40085449 -9.44213867 11.27319336 C-8.68336442 9.55101858 -7.93230078 7.82405093 -7.25650024 6.06765747 C-6.58172402 4.34606134 -5.79707759 2.66849737 -5 1 C-2 0 -2 0 0 0 Z " fill="#363636" transform="translate(164,204)"/>
<path d="M0 0 C14.52 0 29.04 0 44 0 C44 0.66 44 1.32 44 2 C42.96875 2.12375 41.9375 2.2475 40.875 2.375 C37.37883154 2.93889814 34.31602373 3.78682059 31 5 C31 4.34 31 3.68 31 3 C30.40832031 3.08378906 29.81664062 3.16757813 29.20703125 3.25390625 C24.84016899 3.81668295 21.31439253 4.07859813 17 3 C13.87035205 2.85096915 12.00606005 2.99797998 9 4 C6.66700175 4.03954234 4.33291811 4.04401732 2 4 C2 3.34 2 2.68 2 2 C1.34 1.34 0.68 0.68 0 0 Z " fill="#313131" transform="translate(325,237)"/>
<path d="M0 0 C0.66 0.66 1.32 1.32 2 2 C1.61142822 2.89307861 1.22285645 3.78615723 0.82250977 4.70629883 C-0.6193667 8.02117133 -2.05956897 11.336769 -3.49926758 14.65258789 C-4.12250893 16.08735662 -4.7462036 17.52192851 -5.37036133 18.95629883 C-6.26763366 21.01852617 -7.16327121 23.08145678 -8.05859375 25.14453125 C-8.3377916 25.78526077 -8.61698944 26.4259903 -8.90464783 27.08613586 C-10.03953577 29.70487997 -11.09680744 32.29042233 -12 35 C-14.97 35 -17.94 35 -21 35 C-21 34.67 -21 34.34 -21 34 C-18.69 33.34 -16.38 32.68 -14 32 C-13.11064623 28.696686 -12.53725895 25.37705625 -12 22 C-11.34 22 -10.68 22 -10 22 C-10 20.35 -10 18.7 -10 17 C-9.34 17 -8.68 17 -8 17 C-7.67 15.68 -7.34 14.36 -7 13 C-6.34 13 -5.68 13 -5 13 C-5.226875 12.443125 -5.45375 11.88625 -5.6875 11.3125 C-6.12411759 8.0815298 -4.71966671 6.68268006 -3 4 C-3 3.01 -3 2.02 -3 1 C-2.01 0.67 -1.02 0.34 0 0 Z " fill="#353535" transform="translate(151,305)"/>
<path d="M0 0 C0.99 0.66 1.98 1.32 3 2 C-8.25799574 19.1684435 -8.25799574 19.1684435 -14.63671875 20.5859375 C-15.41660156 20.72257812 -16.19648438 20.85921875 -17 21 C-18.68538601 22.99665314 -18.68538601 22.99665314 -20 25 C-20.66 25 -21.32 25 -22 25 C-22 25.66 -22 26.32 -22 27 C-23.32 26.67 -24.64 26.34 -26 26 C-25.34 26 -24.68 26 -24 26 C-23.690625 25.38125 -23.38125 24.7625 -23.0625 24.125 C-21 20 -21 20 -17.5625 18.5625 C-13.80931887 17.29809012 -13.80931887 17.29809012 -12 14 C-11.34 14.33 -10.68 14.66 -10 15 C-9.67 12.69 -9.34 10.38 -9 8 C-8.38125 7.896875 -7.7625 7.79375 -7.125 7.6875 C-4.63473516 7.12474627 -4.63473516 7.12474627 -3 4 C-2.34 4 -1.68 4 -1 4 C-0.67 2.68 -0.34 1.36 0 0 Z " fill="#2F2F2F" transform="translate(242,306)"/>
<path d="M0 0 C0.33 0 0.66 0 1 0 C1.51735929 12.96272453 0.49527295 24.49874917 -3 37 C-3.30035156 38.10085938 -3.60070312 39.20171875 -3.91015625 40.3359375 C-6.27230446 48.12795887 -9.96141291 54.96650563 -14 62 C-15 59 -15 59 -13.3125 55.5 C-12.93738281 54.79230469 -12.56226563 54.08460938 -12.17578125 53.35546875 C-10.03038697 49.05755263 -8.55651172 44.53629291 -7 40 C-6.65839844 39.12730469 -6.31679688 38.25460937 -5.96484375 37.35546875 C-1.67021282 25.41868089 -1.16982915 12.54331789 0 0 Z " fill="#EFEFEF" transform="translate(412,245)"/>
<path d="M0 0 C1.32830615 3.98491845 0.23204404 5.40048548 -1.4375 9.1875 C-1.91058594 10.27417969 -2.38367188 11.36085938 -2.87109375 12.48046875 C-3.24363281 13.31191406 -3.61617187 14.14335937 -4 15 C-4.66 15 -5.32 15 -6 15 C-6.061875 15.9075 -6.12375 16.815 -6.1875 17.75 C-6.83108559 22.53788672 -8.9241545 26.68635007 -10.94140625 31.03515625 C-12.0849325 34.23787367 -12.26940765 36.62505683 -12 40 C-9.78524902 42.21475098 -4.03803811 41.40460495 -0.90234375 41.51757812 C2.86746432 41.69954518 4.79364292 41.86242861 8 44 C0.31604457 44.2137731 -6.56340812 44.01670288 -14 42 C-14.79207719 33.05832859 -12.78037371 27.01079192 -9 19 C-8.30288827 17.42642256 -7.61049811 15.85074817 -6.921875 14.2734375 C-1.20413588 1.20413588 -1.20413588 1.20413588 0 0 Z " fill="#EBEBEB" transform="translate(109,304)"/>
<path d="M0 0 C1.125 1.625 1.125 1.625 2 4 C1.37513559 6.01345199 0.7006558 8.01165247 0 10 C-0.56745023 12.28541881 -1.10920591 14.5773718 -1.625 16.875 C-1.88539063 18.02742188 -2.14578125 19.17984375 -2.4140625 20.3671875 C-2.60742188 21.23601562 -2.80078125 22.10484375 -3 23 C-6 22 -6 22 -7.38671875 19.27734375 C-7.81597656 18.17519531 -8.24523437 17.07304687 -8.6875 15.9375 C-9.12449219 14.83277344 -9.56148437 13.72804687 -10.01171875 12.58984375 C-10.33785156 11.73519531 -10.66398438 10.88054687 -11 10 C-10.21625 9.87625 -9.4325 9.7525 -8.625 9.625 C-5.85942178 9.20882007 -5.85942178 9.20882007 -4 7 C-3.67 7.33 -3.34 7.66 -3 8 C-2.01 5.36 -1.02 2.72 0 0 Z " fill="#3D3E3D" transform="translate(219,189)"/>
<path d="M0 0 C0.33 0 0.66 0 1 0 C1.01981934 0.58378418 1.03963867 1.16756836 1.06005859 1.76904297 C1.15662861 4.47140268 1.26575973 7.17312394 1.375 9.875 C1.4059375 10.7928125 1.436875 11.710625 1.46875 12.65625 C1.80588021 20.63499821 2.58358254 28.67910544 6 36 C5.01 36 4.02 36 3 36 C2.34 34.68 1.68 33.36 1 32 C0.34 32 -0.32 32 -1 32 C-1.16928239 29.31264212 -1.3354953 26.62515116 -1.5 23.9375 C-1.54769531 23.18533203 -1.59539062 22.43316406 -1.64453125 21.65820312 C-2.10747348 14.01965633 -2.0759374 7.395527 0 0 Z " fill="#323232" transform="translate(290,263)"/>
<path d="M0 0 C0.99 0 1.98 0 3 0 C3.02917228 3.22914752 3.04685663 6.45826083 3.0625 9.6875 C3.07087891 10.59951172 3.07925781 11.51152344 3.08789062 12.45117188 C3.09111328 13.33740234 3.09433594 14.22363281 3.09765625 15.13671875 C3.10289307 15.94842529 3.10812988 16.76013184 3.11352539 17.59643555 C2.9929791 20.14864673 2.559949 22.51026137 2 25 C1.01 25.33 0.02 25.66 -1 26 C-2.25 19.375 -2.25 19.375 0 16 C0.55872012 11.75372709 -0.61494302 9.4782081 -3 6 C-2.34 5.67 -1.68 5.34 -1 5 C-0.34444881 2.47266765 -0.34444881 2.47266765 0 0 Z " fill="#333333" transform="translate(404,238)"/>
<path d="M0 0 C2.31 0.33 4.62 0.66 7 1 C7.33 1.99 7.66 2.98 8 4 C10.01508358 4.73323796 10.01508358 4.73323796 12 5 C12 5.99 12 6.98 12 8 C12.99 7.67 13.98 7.34 15 7 C15.99 7.66 16.98 8.32 18 9 C17.8125 10.875 17.8125 10.875 17 13 C14.44921875 14.1328125 14.44921875 14.1328125 12 15 C11.55269531 14.33613281 11.10539062 13.67226562 10.64453125 12.98828125 C7.39332032 8.23971092 4.2637204 3.87610945 0 0 Z " fill="#3D3D3D" transform="translate(351,193)"/>
<path d="M0 0 C3.21701524 1.2149647 5.65256704 2.81781021 8.37890625 4.8984375 C9.03890625 4.5684375 9.69890625 4.2384375 10.37890625 3.8984375 C10.87390625 6.8684375 10.87390625 6.8684375 11.37890625 9.8984375 C10.46109375 9.41632813 9.54328125 8.93421875 8.59765625 8.4375 C-3.09549121 2.37627794 -12.55200677 0.54508503 -25.62109375 -0.1015625 C-25.62109375 -0.4315625 -25.62109375 -0.7615625 -25.62109375 -1.1015625 C-24.68136719 -1.19244141 -24.68136719 -1.19244141 -23.72265625 -1.28515625 C-22.49675781 -1.41083984 -22.49675781 -1.41083984 -21.24609375 -1.5390625 C-20.43398438 -1.62027344 -19.621875 -1.70148438 -18.78515625 -1.78515625 C-11.78954359 -2.80798048 -7.03606535 -2.16990107 0 0 Z " fill="#3F3F3F" transform="translate(335.62109375,180.1015625)"/>
<path d="M0 0 C7.59 0 15.18 0 23 0 C23 6.93 23 13.86 23 21 C22.67 21 22.34 21 22 21 C21.80664062 19.85660156 21.61328125 18.71320313 21.4140625 17.53515625 C21.15150234 16.04418963 20.88845639 14.55330851 20.625 13.0625 C20.49867188 12.30775391 20.37234375 11.55300781 20.2421875 10.77539062 C19.89452437 8.83716865 19.45356496 6.91620795 19 5 C18.34 4.67 17.68 4.34 17 4 C17 3.34 17 2.68 17 2 C11.39 1.67 5.78 1.34 0 1 C0 0.67 0 0.34 0 0 Z " fill="#666666" transform="translate(180,265)"/>
<path d="M0 0 C0.66 0.99 1.32 1.98 2 3 C1.67 3.66 1.34 4.32 1 5 C-1.39852655 5.75711812 -3.748129 6.4080768 -6.1875 7 C-10.85700709 8.16623787 -15.45110495 9.41531494 -20 11 C-20.66 10.34 -21.32 9.68 -22 9 C-21.34 8.34 -20.68 7.68 -20 7 C-18.68 7 -17.36 7 -16 7 C-15.67 6.34 -15.34 5.68 -15 5 C-10.05233946 3.04394816 -5.16292626 1.27902458 0 3 C0 2.01 0 1.02 0 0 Z " fill="#383838" transform="translate(313,174)"/>
<path d="M0 0 C8.73960648 1.53817074 16.88818867 3.23993687 25 7 C24.67 8.32 24.34 9.64 24 11 C22.68 10.67 21.36 10.34 20 10 C20 9.34 20 8.68 20 8 C17.525 7.505 17.525 7.505 15 7 C15 6.34 15 5.68 15 5 C14.278125 5.185625 13.55625 5.37125 12.8125 5.5625 C9.87173027 6.01995307 7.85896942 5.73516357 5 5 C5 4.34 5 3.68 5 3 C2.03 2.505 2.03 2.505 -1 2 C-0.67 1.34 -0.34 0.68 0 0 Z " fill="#3A3A3A" transform="translate(328,145)"/>
<path d="M0 0 C1.32286869 3.96860606 0.33656467 5.67002614 -1.01953125 9.6015625 C-1.34747932 10.55716568 -1.34747932 10.55716568 -1.68205261 11.53207397 C-2.14601253 12.87675301 -2.61449669 14.21987832 -3.0871582 15.56152344 C-3.81083072 17.62025116 -4.51670295 19.68447382 -5.22070312 21.75 C-5.67342843 23.05505248 -6.12717011 24.35975291 -6.58203125 25.6640625 C-6.99686768 26.85467285 -7.4117041 28.0452832 -7.83911133 29.27197266 C-9 32 -9 32 -11 33 C-11.33 32.01 -11.66 31.02 -12 30 C-11.34 30 -10.68 30 -10 30 C-9.87625 29.05125 -9.7525 28.1025 -9.625 27.125 C-9.42129689 25.74930642 -9.21238206 24.37438046 -9 23 C-8.87753906 22.18144531 -8.75507813 21.36289063 -8.62890625 20.51953125 C-7.69312351 15.04561631 -6.33219947 11.54390837 -3 7 C-1.88960774 4.69956708 -0.94957276 2.37393191 0 0 Z " fill="#858988" transform="translate(226,182)"/>
<path d="M0 0 C0.99 0.66 1.98 1.32 3 2 C2.4449637 5.97776012 1.57855819 9.31669755 0 13 C-0.32484375 14.01707031 -0.32484375 14.01707031 -0.65625 15.0546875 C-0.8934375 15.77914062 -1.130625 16.50359375 -1.375 17.25 C-1.58898437 17.93578125 -1.80296875 18.6215625 -2.0234375 19.328125 C-3 21 -3 21 -5.1015625 21.734375 C-5.72804687 21.82203125 -6.35453125 21.9096875 -7 22 C-4.84071065 14.60606981 -2.4695482 7.29582259 0 0 Z " fill="#323131" transform="translate(226,202)"/>
<path d="M0 0 C7.92 0 15.84 0 24 0 C23.67 0.99 23.34 1.98 23 3 C22.01 3 21.02 3 20 3 C20 2.34 20 1.68 20 1 C18.453125 1.2475 18.453125 1.2475 16.875 1.5 C13 2 13 2 9.8125 1.8125 C6.86183162 1.69916531 6.86183162 1.69916531 5 4 C3 6 3 6 -0.25 6.25 C-1.1575 6.1675 -2.065 6.085 -3 6 C-3.33 5.34 -3.66 4.68 -4 4 C-2.68 3.67 -1.36 3.34 0 3 C0 2.01 0 1.02 0 0 Z " fill="#2C2C2C" transform="translate(304,145)"/>
<path d="M0 0 C0.66 0 1.32 0 2 0 C1.48446121 6.49850211 0.53332291 12.66226532 -1 19 C-1.66 19 -2.32 19 -3 19 C-3.33 19.99 -3.66 20.98 -4 22 C-4.33 22 -4.66 22 -5 22 C-5.83507383 13.61214729 -3.61478507 7.51358897 0 0 Z " fill="#272727" transform="translate(143,241)"/>
<path d="M0 0 C0.33 0.66 0.66 1.32 1 2 C3.97 1.34 6.94 0.68 10 0 C8.515 1.485 8.515 1.485 7 3 C5.80972016 5.59915538 5.80972016 5.59915538 5 8 C0.75776898 8.3636198 -1.58168085 7.5393228 -5 5 C-5 4.34 -5 3.68 -5 3 C-2.5 1.375 -2.5 1.375 0 0 Z " fill="#282828" transform="translate(204,338)"/>
<path d="M0 0 C0.33 0 0.66 0 1 0 C1 4.29 1 8.58 1 13 C0.01 13 -0.98 13 -2 13 C-1.7525 12.2575 -1.7525 12.2575 -1.5 11.5 C-1.03069535 9.15347675 -0.9658035 7.19343125 -1 4.8125 C-1 1 -1 1 0 0 Z M-3 14 C-2 17 -2 17 -3.1875 20.125 C-5 23 -5 23 -7.1875 23.875 C-8.0846875 23.936875 -8.0846875 23.936875 -9 24 C-9.6875 22.1875 -9.6875 22.1875 -10 20 C-8.6875 18.25 -8.6875 18.25 -7 17 C-6.34 17 -5.68 17 -5 17 C-4.34 16.01 -3.68 15.02 -3 14 Z " fill="#302F30" transform="translate(221,175)"/>
<path d="M0 0 C0 0.99 0 1.98 0 3 C-4.625 5.125 -4.625 5.125 -8 4 C-8.33 4.66 -8.66 5.32 -9 6 C-12.38035912 6.62599243 -15.56169885 7 -19 7 C-19 6.34 -19 5.68 -19 5 C-17.27255984 4.34956281 -15.5429631 3.70485156 -13.8125 3.0625 C-12.84957031 2.70285156 -11.88664062 2.34320313 -10.89453125 1.97265625 C-7.18085059 0.72473927 -3.91954078 0 0 0 Z " fill="#3F3F3F" transform="translate(304,145)"/>
<path d="M0 0 C0.763125 0.61875 1.52625 1.2375 2.3125 1.875 C4.99625809 4.05597052 4.99625809 4.05597052 8 6 C8 6.99 8 7.98 8 9 C8.66 9 9.32 9 10 9 C10 9.66 10 10.32 10 11 C10.99 11.33 11.98 11.66 13 12 C14.1875 14.0625 14.1875 14.0625 15 16 C10.54913246 15.55814632 7.8993706 12.49297908 4.8125 9.5625 C4.26658203 9.05912109 3.72066406 8.55574219 3.15820312 8.03710938 C-0.85270579 4.29458841 -0.85270579 4.29458841 -2 2 C-1.34 2 -0.68 2 0 2 C0 1.34 0 0.68 0 0 Z " fill="#333333" transform="translate(266,317)"/>
<path d="M0 0 C0.66 0 1.32 0 2 0 C1.9175 0.86625 1.835 1.7325 1.75 2.625 C2.05853514 6.79022433 3.59625762 8.6493288 6 12 C6.75 14.375 6.75 14.375 7 16 C6.01 16 5.02 16 4 16 C0.675653 12.59650189 -1.8731609 9.94672484 -2 5 C-1.0625 2.1875 -1.0625 2.1875 0 0 Z " fill="#2A2A2A" transform="translate(185,317)"/>
<path d="M0 0 C4.32151365 1.30954959 7.06951346 3.59231987 10.3515625 6.5625 C12.14959934 8.19274687 12.14959934 8.19274687 15 10 C14.67 10.99 14.34 11.98 14 13 C13.34 13 12.68 13 12 13 C12 12.34 12 11.68 12 11 C11.360625 10.87625 10.72125 10.7525 10.0625 10.625 C9.381875 10.41875 8.70125 10.2125 8 10 C7.67 9.34 7.34 8.68 7 8 C5.68 8 4.36 8 3 8 C2.01 5.36 1.02 2.72 0 0 Z " fill="#393939" transform="translate(296,301)"/>
<path d="M0 0 C3.22265625 5.17578125 3.22265625 5.17578125 4 7 C3.67 7.99 3.34 8.98 3 10 C1.5 8.75 1.5 8.75 0 7 C0 5.68 0 4.36 0 3 C-2.31 4.65 -4.62 6.3 -7 8 C-7.6875 5.6875 -7.6875 5.6875 -8 3 C-5.90994325 -0.36731366 -3.75103888 -0.30413829 0 0 Z " fill="#3D3D3D" transform="translate(260,166)"/>
<path d="M0 0 C0.66 0.66 1.32 1.32 2 2 C-0.97 8.93 -0.97 8.93 -4 16 C-5.32 15.67 -6.64 15.34 -8 15 C-7.34 14.67 -6.68 14.34 -6 14 C-6 11.36 -6 8.72 -6 6 C-5.01 6 -4.02 6 -3 6 C-2.814375 4.7934375 -2.814375 4.7934375 -2.625 3.5625 C-2.41875 2.716875 -2.2125 1.87125 -2 1 C-1.34 0.67 -0.68 0.34 0 0 Z " fill="#343434" transform="translate(200,192)"/>
<path d="M0 0 C2.21391761 2.21391761 3.03968765 4.00263901 4.25 6.875 C4.62640625 7.73867187 5.0028125 8.60234375 5.390625 9.4921875 C6 12 6 12 5.109375 14.3203125 C4.74328125 14.87460938 4.3771875 15.42890625 4 16 C2 13 2 13 1.0625 10.0625 C-0.28905878 6.16683058 -1.57187777 3.81606985 -5.1875 1.75 C-5.785625 1.5025 -6.38375 1.255 -7 1 C-3.625 0.375 -3.625 0.375 0 0 Z " fill="#414141" transform="translate(219,145)"/>
<path d="M0 0 C-0.67883043 3.11547441 -1.74106902 5.85137721 -3.0625 8.75 C-3.60583984 9.94882812 -3.60583984 9.94882812 -4.16015625 11.171875 C-4.43730469 11.77515625 -4.71445312 12.3784375 -5 13 C-5.33 13 -5.66 13 -6 13 C-6.268125 11.9275 -6.53625 10.855 -6.8125 9.75 C-7.86227827 6.43491072 -8.74612328 4.56122354 -11 2 C-9.5422647 1.664061 -8.08378894 1.33133376 -6.625 1 C-5.40683594 0.7215625 -5.40683594 0.7215625 -4.1640625 0.4375 C-2 0 -2 0 0 0 Z " fill="#4C4C4C" transform="translate(331,308)"/>
<path d="M0 0 C0.66 0.33 1.32 0.66 2 1 C-0.31 6.28 -2.62 11.56 -5 17 C-5.99 16.34 -6.98 15.68 -8 15 C-7.67 14.01 -7.34 13.02 -7 12 C-6.34 12 -5.68 12 -5 12 C-5.28875 11.319375 -5.5775 10.63875 -5.875 9.9375 C-6.02681206 6.36991658 -5.3378595 5.8092257 -3.0625 3.1875 C-2.05559763 2.11178881 -1.03885944 1.04488181 0 0 Z " fill="#3E3E3E" transform="translate(193,209)"/>
<path d="M0 0 C0 0.66 0 1.32 0 2 C-1.828125 3.5078125 -1.828125 3.5078125 -4.25 5.125 C-5.03890625 5.66382813 -5.8278125 6.20265625 -6.640625 6.7578125 C-9 8 -9 8 -13 8 C-13.66 6.68 -14.32 5.36 -15 4 C-14.01 4 -13.02 4 -12 4 C-10.47898698 3.38277732 -8.97982873 2.71031779 -7.5 2 C-4.63742226 0.62596268 -3.22438786 0 0 0 Z " fill="#4A4A4A" transform="translate(293,184)"/>
<path d="M0 0 C0.66 0.33 1.32 0.66 2 1 C1.33501617 5.38889325 -0.18757677 8.9811485 -2 13 C-2.99 12.67 -3.98 12.34 -5 12 C-4.58525633 6.71201818 -3.64775386 3.88309282 0 0 Z " fill="#393939" transform="translate(174,250)"/>
<path d="M0 0 C2.99588024 1.4595314 4.67519006 2.31429012 6.125 5.375 C6 8 6 8 3.5625 10.8125 C2.716875 11.534375 1.87125 12.25625 1 13 C1.33 10.36 1.66 7.72 2 5 C0.68 4.34 -0.64 3.68 -2 3 C-1.34 2.01 -0.68 1.02 0 0 Z " fill="#434343" transform="translate(314,314)"/>
<path d="M0 0 C0.66 0 1.32 0 2 0 C3.32854177 5.9180497 2.66464729 8.77729131 0 14 C-0.66 13.67 -1.32 13.34 -2 13 C-1.67 12.34 -1.34 11.68 -1 11 C-1.66 11 -2.32 11 -3 11 C-2.32829194 7.1936543 -1.27253436 3.64793184 0 0 Z " fill="#303030" transform="translate(219,224)"/>
<path d="M0 0 C2.50298434 2.93828597 3.46930939 5.17902761 4 9 C4.66 9 5.32 9 6 9 C7.49524178 11.2727675 8.78399715 13.5679943 10 16 C9.34 16.99 8.68 17.98 8 19 C7.34 19 6.68 19 6 19 C4.99394407 16.39802798 3.99497475 13.79370638 3 11.1875 C2.57074219 10.08051758 2.57074219 10.08051758 2.1328125 8.95117188 C1.86210937 8.23896484 1.59140625 7.52675781 1.3125 6.79296875 C1.06113281 6.1383667 0.80976563 5.48376465 0.55078125 4.80932617 C0 3 0 3 0 0 Z " fill="#868887" transform="translate(272,178)"/>
<path d="M0 0 C3.125 0.375 3.125 0.375 6 1 C6 1.99 6 2.98 6 4 C8.64 4 11.28 4 14 4 C14 4.33 14 4.66 14 5 C8.72 5 3.44 5 -2 5 C-2 2 -2 2 0 0 Z " fill="#4F4F4F" transform="translate(314,338)"/>
<path d="M0 0 C0 3 0 3 -2 5.5 C-5.60154953 8.50129127 -8.56297449 9.57112738 -13 11 C-13.33 10.01 -13.66 9.02 -14 8 C-13.01 8 -12.02 8 -11 8 C-11 7.34 -11 6.68 -11 6 C-10.01 6 -9.02 6 -8 6 C-8 5.34 -8 4.68 -8 4 C-7.236875 3.71125 -6.47375 3.4225 -5.6875 3.125 C-2.84970692 2.03730987 -2.84970692 2.03730987 0 0 Z " fill="#393939" transform="translate(354,329)"/>
<path d="M0 0 C2.17260367 3.2589055 3.35021087 6.32149695 4.6875 10 C5.14511719 11.2375 5.60273438 12.475 6.07421875 13.75 C7 17 7 17 6 20 C5.67 19.34 5.34 18.68 5 18 C4.34 18 3.68 18 3 18 C2.66127487 16.58461283 2.32925376 15.16762037 2 13.75 C1.814375 12.96109375 1.62875 12.1721875 1.4375 11.359375 C1 9 1 9 1 5 C0.34 5 -0.32 5 -1 5 C-0.67 3.35 -0.34 1.7 0 0 Z " fill="#3B3B3B" transform="translate(270,194)"/>
<path d="M0 0 C0.5625 1.9375 0.5625 1.9375 1 4 C0.67 4.33 0.34 4.66 0 5 C0.66 5.66 1.32 6.32 2 7 C-0.57784846 9.64752004 -2.91648098 11.94432065 -6 14 C-6.48792229 10.74718472 -6.40014561 8.65286916 -4.6640625 5.8203125 C-3.15782398 3.8332091 -1.61782175 1.8970886 0 0 Z " fill="#2B2B2B" transform="translate(193,202)"/>
<path d="M0 0 C0.66 0.33 1.32 0.66 2 1 C1.625 3.4375 1.625 3.4375 1 6 C0.01 6.495 0.01 6.495 -1 7 C-1.66 6.67 -2.32 6.34 -3 6 C-3.66 7.32 -4.32 8.64 -5 10 C-6.32 9.67 -7.64 9.34 -9 9 C-6.31941902 5.42589203 -3.57410797 2.68058098 0 0 Z " fill="#303030" transform="translate(197,305)"/>
<path d="M0 0 C0.66 0.33 1.32 0.66 2 1 C0.625 3 0.625 3 -1 5 C-1.66 5 -2.32 5 -3 5 C-3 5.66 -3 6.32 -3 7 C-5.30595384 8.62946228 -7.60196707 10.1435897 -10 11.625 C-11.00160156 12.25535156 -11.00160156 12.25535156 -12.0234375 12.8984375 C-13.67831454 13.93864592 -15.33866288 14.97014051 -17 16 C-17 15.01 -17 14.02 -17 13 C-11.74285714 9 -11.74285714 9 -9 9 C-9 8.34 -9 7.68 -9 7 C-7.34151823 5.98648336 -5.67334039 4.98879205 -4 4 C-2.63015802 2.70420353 -1.2848951 1.38007251 0 0 Z " fill="#EEEEEE" transform="translate(397,191)"/>
<path d="M0 0 C0.66 0.33 1.32 0.66 2 1 C0.88967009 4.48960828 -0.23785359 7.7866742 -2 11 C-2.474375 11.86625 -2.94875 12.7325 -3.4375 13.625 C-5 16 -5 16 -8 18 C-6.65150163 13.64029169 -4.95092154 9.68658562 -2.875 5.625 C-2.33617187 4.56539062 -1.79734375 3.50578125 -1.2421875 2.4140625 C-0.83226562 1.61742187 -0.42234375 0.82078125 0 0 Z " fill="#424242" transform="translate(169,184)"/>
<path d="M0 0 C2.5 0.375 2.5 0.375 4.3125 1.5 C5.99106106 4.15035957 5.70450238 6.30746424 5.5 9.375 C4.51 9.375 3.52 9.375 2.5 9.375 C2.5 7.065 2.5 4.755 2.5 2.375 C1.3553125 2.9009375 1.3553125 2.9009375 0.1875 3.4375 C-2.5 4.375 -2.5 4.375 -5.5 3.375 C-3.72510401 1.13302612 -2.87824511 0.43173677 0 0 Z " fill="#353535" transform="translate(242.5,165.625)"/>
<path d="M0 0 C1.32 0 2.64 0 4 0 C4 0.99 4 1.98 4 3 C4.515625 2.835 5.03125 2.67 5.5625 2.5 C8.73363876 1.84951 11.77218334 1.9379266 15 2 C15.33 2.66 15.66 3.32 16 4 C9.4 4 2.8 4 -4 4 C-2.68 2.68 -1.36 1.36 0 0 Z " fill="#2A2A2A" transform="translate(172,295)"/>
<path d="M0 0 C4.95 0.33 9.9 0.66 15 1 C15 1.33 15 1.66 15 2 C11.37 2.33 7.74 2.66 4 3 C3.34 5.64 2.68 8.28 2 11 C-0.57877584 6.97066275 0 5.48465565 0 0 Z " fill="#404040" transform="translate(319,237)"/>
<path d="M0 0 C0.66 0.66 1.32 1.32 2 2 C1.23432134 3.58583248 0.46222035 5.16856494 -0.3125 6.75 C-0.74175781 7.63171875 -1.17101562 8.5134375 -1.61328125 9.421875 C-2.90103146 11.81600215 -4.30915754 13.87776958 -6 16 C-6.66 15.67 -7.32 15.34 -8 15 C-7.04965754 12.68391382 -6.09024942 10.3723643 -5.125 8.0625 C-4.85558594 7.40314453 -4.58617188 6.74378906 -4.30859375 6.06445312 C-2.2265625 1.11328125 -2.2265625 1.11328125 0 0 Z " fill="#2E2E2E" transform="translate(115,310)"/>
<path d="M0 0 C0.99 0 1.98 0 3 0 C3 6.6 3 13.2 3 20 C2.67 20 2.34 20 2 20 C1.93941406 19.22914063 1.87882812 18.45828125 1.81640625 17.6640625 C1.73261719 16.66117188 1.64882813 15.65828125 1.5625 14.625 C1.48128906 13.62726563 1.40007812 12.62953125 1.31640625 11.6015625 C1.15034374 9.02072387 1.15034374 9.02072387 0 7 C-0.99 6.34 -1.98 5.68 -3 5 C-2.34 5 -1.68 5 -1 5 C-0.67 3.35 -0.34 1.7 0 0 Z " fill="#525252" transform="translate(404,238)"/>
<path d="M0 0 C0.66 0 1.32 0 2 0 C2.23848951 5.12752436 1.26460557 8.47078887 -1 13 C-1.99 13 -2.98 13 -4 13 C-3.71517632 11.58194169 -3.42181856 10.16559621 -3.125 8.75 C-2.96257812 7.96109375 -2.80015625 7.1721875 -2.6328125 6.359375 C-2.00849925 4.03168856 -1.15161458 2.10968048 0 0 Z " fill="#2F2F2F" transform="translate(236,172)"/>
<path d="M0 0 C1.65 0.33 3.3 0.66 5 1 C4.34 2.32 3.68 3.64 3 5 C4.32 5.33 5.64 5.66 7 6 C7.33 7.98 7.66 9.96 8 12 C7.01 12.495 7.01 12.495 6 13 C4.80286983 11.21475351 3.61752721 9.4215972 2.4375 7.625 C1.44556641 6.12839844 1.44556641 6.12839844 0.43359375 4.6015625 C-0.03949219 3.74304688 -0.51257813 2.88453125 -1 2 C-0.67 1.34 -0.34 0.68 0 0 Z " fill="#313131" transform="translate(255,304)"/>
<path d="M0 0 C0.66 0.66 1.32 1.32 2 2 C1.5390625 4.8203125 1.5390625 4.8203125 0.625 8.125 C0.32851562 9.22070312 0.03203125 10.31640625 -0.2734375 11.4453125 C-0.51320312 12.28835937 -0.75296875 13.13140625 -1 14 C-1.99 13.67 -2.98 13.34 -4 13 C-4.33 12.01 -4.66 11.02 -5 10 C-4.67 9.34 -4.34 8.68 -4 8 C-3.34 8 -2.68 8 -2 8 C-1.34 5.36 -0.68 2.72 0 0 Z " fill="#5B5F5E" transform="translate(217,198)"/>
<path d="M0 0 C0.66 0 1.32 0 2 0 C1 3 1 3 -2 5 C-1.34 3.35 -0.68 1.7 0 0 Z M-5 5 C-4.01 5.33 -3.02 5.66 -2 6 C-2.66 6 -3.32 6 -4 6 C-4 6.66 -4 7.32 -4 8 C-4.66 8 -5.32 8 -6 8 C-5.67 7.01 -5.34 6.02 -5 5 Z M-8 6 C-7.01 7.32 -6.02 8.64 -5 10 C-5.99 10.33 -6.98 10.66 -8 11 C-8.66 11.66 -9.32 12.32 -10 13 C-10.33 12.34 -10.66 11.68 -11 11 C-9.5625 8.375 -9.5625 8.375 -8 6 Z " fill="#303030" transform="translate(361,290)"/>
<path d="M0 0 C0.66 0.33 1.32 0.66 2 1 C1.20928784 2.75043149 0.41739082 4.50032778 -0.375 6.25 C-0.81585938 7.22453125 -1.25671875 8.1990625 -1.7109375 9.203125 C-2.76638138 11.49311839 -3.85543935 13.75366601 -5 16 C-6.09658936 12.71023192 -5.79953138 11.28696233 -5 8 C-4.34 8 -3.68 8 -3 8 C-3.33 6.68 -3.66 5.36 -4 4 C-3.34 4 -2.68 4 -2 4 C-1.34 2.68 -0.68 1.36 0 0 Z " fill="#404040" transform="translate(181,236)"/>
<path d="M0 0 C0.76849965 2.25542675 1.15628879 3.53906176 0.37915039 5.83105469 C0.03875732 6.43852539 -0.30163574 7.04599609 -0.65234375 7.671875 C-1.01650391 8.33574219 -1.38066406 8.99960938 -1.75585938 9.68359375 C-2.14580078 10.36550781 -2.53574219 11.04742187 -2.9375 11.75 C-3.32357422 12.44738281 -3.70964844 13.14476562 -4.10742188 13.86328125 C-5.06073637 15.5816012 -6.02895346 17.29163804 -7 19 C-8 16 -8 16 -7.37915039 14.19067383 C-7.03875732 13.53607178 -6.69836426 12.88146973 -6.34765625 12.20703125 C-5.98349609 11.49482422 -5.61933594 10.78261719 -5.24414062 10.04882812 C-4.85419922 9.31083984 -4.46425781 8.57285156 -4.0625 7.8125 C-3.48338867 6.68811523 -3.48338867 6.68811523 -2.89257812 5.54101562 C-1.93728243 3.68939311 -0.96978423 1.84407548 0 0 Z " fill="#F0F0F0" transform="translate(176,152)"/>
<path d="M0 0 C5.94 0.33 11.88 0.66 18 1 C14.55549263 3.29633824 12.06187717 3.54016485 8 4 C8 3.34 8 2.68 8 2 C7.01 2 6.02 2 5 2 C5 2.66 5 3.32 5 4 C2.03 3.505 2.03 3.505 -1 3 C-0.67 2.01 -0.34 1.02 0 0 Z " fill="#363636" transform="translate(176,265)"/>
<path d="M0 0 C0.99 0 1.98 0 3 0 C2.85969405 3.01657791 2.70648535 5.23841273 0.59765625 7.51171875 C-0.88904235 8.73256066 -2.44134898 9.87246522 -4 11 C-3.52269162 9.5410574 -3.04308958 8.08286504 -2.5625 6.625 C-2.29566406 5.81289063 -2.02882813 5.00078125 -1.75390625 4.1640625 C-1 2 -1 2 0 0 Z " fill="#3A3A3A" transform="translate(124,285)"/>
<path d="M0 0 C0.66 0 1.32 0 2 0 C5.08900201 5.66507011 7.57664615 10.50857435 8 17 C5.3144406 14.3144406 4.93950026 11.62378672 4 8 C3.34 8 2.68 8 2 8 C0.74335022 5.09399739 0 3.20395416 0 0 Z " fill="#6A6D6C" transform="translate(269,170)"/>
<path d="M0 0 C0 1.65 0 3.3 0 5 C-1.98 5.66 -3.96 6.32 -6 7 C-6.66 5.35 -7.32 3.7 -8 2 C-2.25 0 -2.25 0 0 0 Z " fill="#262727" transform="translate(245,168)"/>
<path d="M0 0 C2.86697492 1.28519565 4.97607712 2.57129254 7 5 C7 5.66 7 6.32 7 7 C7.66 7 8.32 7 9 7 C12 10.46153846 12 10.46153846 12 13 C11.01 13 10.02 13 9 13 C7.97388051 11.34928604 6.97691857 9.68029994 6 8 C5.319375 7.505 4.63875 7.01 3.9375 6.5 C1.51654388 4.62571139 0.93064847 2.86949946 0 0 Z " fill="#EBEBEB" transform="translate(383,164)"/>
<path d="M0 0 C0.99 0.99 1.98 1.98 3 3 C0.69 6.3 -1.62 9.6 -4 13 C-4.33 12.34 -4.66 11.68 -5 11 C-4.00390625 8.3984375 -4.00390625 8.3984375 -2.5625 5.375 C-2.08941406 4.37210937 -1.61632812 3.36921875 -1.12890625 2.3359375 C-0.75636719 1.56507813 -0.38382812 0.79421875 0 0 Z " fill="#393939" transform="translate(119,297)"/>
<path d="M0 0 C0.66 0 1.32 0 2 0 C0.66958425 9.17286652 0.66958425 9.17286652 -2.125 12.625 C-2.74375 13.07875 -3.3625 13.5325 -4 14 C-4.33 13.34 -4.66 12.68 -5 12 C-4.26821134 9.92803369 -3.44100997 7.8891448 -2.5625 5.875 C-2.08941406 4.77929688 -1.61632812 3.68359375 -1.12890625 2.5546875 C-0.75636719 1.71164063 -0.38382813 0.86859375 0 0 Z " fill="#3B3B3B" transform="translate(143,241)"/>
<path d="M0 0 C0.66 0 1.32 0 2 0 C3.51516221 3.03032442 3.17028053 5.65114962 3 9 C2 11.9375 2 11.9375 1 14 C0.67 14 0.34 14 0 14 C0 9.38 0 4.76 0 0 Z " fill="#767777" transform="translate(227,167)"/>
<path d="M0 0 C4.95 0 9.9 0 15 0 C11 4 11 4 8.640625 4.390625 C7.45726562 4.32101563 7.45726562 4.32101563 6.25 4.25 C5.45078125 4.21390625 4.6515625 4.1778125 3.828125 4.140625 C3.22484375 4.09421875 2.6215625 4.0478125 2 4 C2 3.34 2 2.68 2 2 C1.34 1.34 0.68 0.68 0 0 Z " fill="#2E2E2E" transform="translate(325,237)"/>
<path d="M0 0 C1.32 0.33 2.64 0.66 4 1 C3.67 3.31 3.34 5.62 3 8 C2.67 7.34 2.34 6.68 2 6 C0.68 6.33 -0.64 6.66 -2 7 C-2.33 6.34 -2.66 5.68 -3 5 C-1.5625 2.375 -1.5625 2.375 0 0 Z " fill="#2B2B2B" transform="translate(244,205)"/>
<path d="M0 0 C0.66 0.99 1.32 1.98 2 3 C1.67 3.66 1.34 4.32 1 5 C-1.06640625 5.4140625 -1.06640625 5.4140625 -3.5625 5.625 C-4.38878906 5.69976562 -5.21507812 5.77453125 -6.06640625 5.8515625 C-7.02353516 5.92503906 -7.02353516 5.92503906 -8 6 C-8 5.01 -8 4.02 -8 3 C-4.71303767 2.20046862 -3.28976808 1.90341064 0 3 C0 2.01 0 1.02 0 0 Z " fill="#2F2F2F" transform="translate(313,174)"/>
<path d="M0 0 C0.99 0 1.98 0 3 0 C2.21681311 3.91593446 0.60820142 7.36406635 -1 11 C-1.99 10.67 -2.98 10.34 -4 10 C-2.68 6.7 -1.36 3.4 0 0 Z " fill="#3F3F3F" transform="translate(179,161)"/>
<path d="M0 0 C0.763125 0.61875 1.52625 1.2375 2.3125 1.875 C4.99625809 4.05597052 4.99625809 4.05597052 8 6 C7.67 7.32 7.34 8.64 7 10 C6.608125 9.566875 6.21625 9.13375 5.8125 8.6875 C3.98203003 6.86417371 3.98203003 6.86417371 1.375 5.4375 C-1 4 -1 4 -2 2 C-1.34 2 -0.68 2 0 2 C0 1.34 0 0.68 0 0 Z " fill="#2B2B2B" transform="translate(266,317)"/>
<path d="M0 0 C1.70116376 0.94011682 3.36504293 1.94895617 5 3 C6.32608822 3.68096422 7.65686601 4.35330586 9 5 C8 6 8 6 5.75 6.25 C2.44422155 5.94947469 0.64720249 4.96649328 -2 3 C-2 2.34 -2 1.68 -2 1 C-1.34 0.67 -0.68 0.34 0 0 Z " fill="#404040" transform="translate(201,340)"/>
<path d="M0 0 C0.33 0 0.66 0 1 0 C1.33820166 1.5823006 1.67035939 3.16589375 2 4.75 C2.185625 5.63171875 2.37125 6.5134375 2.5625 7.421875 C3 10 3 10 3 14 C2.01 14.33 1.02 14.66 0 15 C0 10.05 0 5.1 0 0 Z " fill="#2C2C2C" transform="translate(209,257)"/>
<path d="M0 0 C0.99 0 1.98 0 3 0 C3 2.97 3 5.94 3 9 C2.01 9.33 1.02 9.66 0 10 C0 6.7 0 3.4 0 0 Z " fill="#2F2F2F" transform="translate(288,253)"/>
<path d="M0 0 C0.66 1.32 1.32 2.64 2 4 C-0.31 5.32 -2.62 6.64 -5 8 C-5.33 7.34 -5.66 6.68 -6 6 C-4 4 -2 2 0 0 Z " fill="#2A2A2A" transform="translate(246,196)"/>
<path d="M0 0 C3.3 0 6.6 0 10 0 C10 0.66 10 1.32 10 2 C5.545 3.485 5.545 3.485 1 5 C0.67 3.35 0.34 1.7 0 0 Z " fill="#3B3D3C" transform="translate(279,184)"/>
<path d="M0 0 C0.99 0.33 1.98 0.66 3 1 C3.66 0.67 4.32 0.34 5 0 C4.43628586 3.26954202 3.50037734 4.82575883 1 7 C-0.32 6.34 -1.64 5.68 -3 5 C-2.01 3.35 -1.02 1.7 0 0 Z " fill="#2F2F2F" transform="translate(284,151)"/>
<path d="M0 0 C0.99 0.33 1.98 0.66 3 1 C3.625 3.375 3.625 3.375 4 6 C3.34 6.66 2.68 7.32 2 8 C-2 3.25 -2 3.25 -2 1 C-1.34 0.67 -0.68 0.34 0 0 Z " fill="#313131" transform="translate(348,185)"/>
<path d="M0 0 C0 0.66 0 1.32 0 2 C-5.28 2 -10.56 2 -16 2 C-16 1.67 -16 1.34 -16 1 C-15.06027344 0.90912109 -15.06027344 0.90912109 -14.1015625 0.81640625 C-12.87566406 0.69072266 -12.87566406 0.69072266 -11.625 0.5625 C-10.81289063 0.48128906 -10.00078125 0.40007812 -9.1640625 0.31640625 C-2.671875 -0.6328125 -2.671875 -0.6328125 0 0 Z " fill="#565656" transform="translate(326,178)"/>
<path d="M0 0 C0.33 1.32 0.66 2.64 1 4 C-0.65 5.32 -2.3 6.64 -4 8 C-4.6875 5.6875 -4.6875 5.6875 -5 3 C-3.40083326 0.79162689 -2.76966516 0 0 0 Z " fill="#343434" transform="translate(257,166)"/>
<path d="M0 0 C1.17571451 3.67410785 1.07366746 7.16929183 1 11 C-3 6.375 -3 6.375 -3 3 C-1.5 1.3125 -1.5 1.3125 0 0 Z " fill="#7A7C7B" transform="translate(268,159)"/>
<path d="M0 0 C0.66 0.33 1.32 0.66 2 1 C-6.07744875 8.66742597 -6.07744875 8.66742597 -12 10 C-8.29909479 6.0747975 -4.45040344 3.05419844 0 0 Z " fill="#F1F1F1" transform="translate(378,326)"/>
<path d="M0 0 C0.33 0.66 0.66 1.32 1 2 C-0.375 4 -0.375 4 -2 6 C-2.66 6 -3.32 6 -4 6 C-4 6.66 -4 7.32 -4 8 C-5.32 7.67 -6.64 7.34 -8 7 C-7.34 7 -6.68 7 -6 7 C-5.690625 6.38125 -5.38125 5.7625 -5.0625 5.125 C-3 1 -3 1 0 0 Z " fill="#272727" transform="translate(224,325)"/>
<path d="M0 0 C2.475 0.495 2.475 0.495 5 1 C5.66 2.98 6.32 4.96 7 7 C6.01 7 5.02 7 4 7 C0 2.65714286 0 2.65714286 0 0 Z " fill="#323232" transform="translate(185,326)"/>
<path d="M0 0 C0.99 0.33 1.98 0.66 3 1 C3 1.66 3 2.32 3 3 C1 4.5 1 4.5 -1 6 C-1 6.66 -1 7.32 -1 8 C-1.99 8.33 -2.98 8.66 -4 9 C-4.66 8.01 -5.32 7.02 -6 6 C-5.34 6 -4.68 6 -4 6 C-4 5.34 -4 4.68 -4 4 C-2.70766393 2.62689293 -1.37562854 1.28965176 0 0 Z " fill="#262626" transform="translate(361,292)"/>
<path d="M0 0 C0.66 0.33 1.32 0.66 2 1 C1.67 3.64 1.34 6.28 1 9 C-0.32 9.33 -1.64 9.66 -3 10 C-2.01 6.7 -1.02 3.4 0 0 Z " fill="#424242" transform="translate(222,214)"/>
<path d="M0 0 C2.125 0.9375 2.125 0.9375 4 2 C3.67 3.32 3.34 4.64 3 6 C1.68 6.33 0.36 6.66 -1 7 C-1.33 5.02 -1.66 3.04 -2 1 C-1.34 0.67 -0.68 0.34 0 0 Z " fill="#3C3C3C" transform="translate(365,200)"/>
<path d="M0 0 C0.99 0.66 1.98 1.32 3 2 C1.02 4.97 -0.96 7.94 -3 11 C-4 8 -4 8 -3.22265625 5.95703125 C-2.83980469 5.24933594 -2.45695313 4.54164063 -2.0625 3.8125 C-1.68222656 3.09707031 -1.30195313 2.38164062 -0.91015625 1.64453125 C-0.60980469 1.10183594 -0.30945313 0.55914062 0 0 Z " fill="#3E3E3E" transform="translate(242,306)"/>
<path d="M0 0 C0.66 0 1.32 0 2 0 C1.34 3.96 0.68 7.92 0 12 C-0.66 11.67 -1.32 11.34 -2 11 C-2.28571429 3.57142857 -2.28571429 3.57142857 0 0 Z " fill="#3C3C3C" transform="translate(404,263)"/>
<path d="M0 0 C1.37095624 3.69037278 0.60010967 5.70883835 -0.9375 9.25 C-1.31777344 10.14203125 -1.69804688 11.0340625 -2.08984375 11.953125 C-2.39019531 12.62859375 -2.69054687 13.3040625 -3 14 C-3.66 14 -4.32 14 -5 14 C-4.28269264 10.76834156 -3.18684926 7.81292078 -1.9375 4.75 C-1.57527344 3.85796875 -1.21304688 2.9659375 -0.83984375 2.046875 C-0.56269531 1.37140625 -0.28554687 0.6959375 0 0 Z " fill="#EDEDED" transform="translate(128,259)"/>
<path d="M0 0 C0.66 0.66 1.32 1.32 2 2 C1.7578125 4.1640625 1.7578125 4.1640625 1.125 6.625 C0.92132813 7.44226563 0.71765625 8.25953125 0.5078125 9.1015625 C0.34023437 9.72804687 0.17265625 10.35453125 0 11 C-0.99 10.67 -1.98 10.34 -3 10 C-2.69201674 8.51988629 -2.378482 7.04092675 -2.0625 5.5625 C-1.88847656 4.73878906 -1.71445313 3.91507813 -1.53515625 3.06640625 C-1 1 -1 1 0 0 Z " fill="#252525" transform="translate(229,228)"/>
<path d="M0 0 C0.66 0.66 1.32 1.32 2 2 C1.52219697 3.29217171 1.04270894 4.58372046 0.5625 5.875 C0.29566406 6.59429687 0.02882812 7.31359375 -0.24609375 8.0546875 C-1 10 -1 10 -2 12 C-2.66 12 -3.32 12 -4 12 C-3.52494322 10.18641846 -3.04483958 8.37415821 -2.5625 6.5625 C-2.29566406 5.55316406 -2.02882812 4.54382813 -1.75390625 3.50390625 C-1 1 -1 1 0 0 Z " fill="#343434" transform="translate(231,189)"/>
<path d="M0 0 C1 3 1 3 0.00390625 5.48046875 C-0.47175781 6.37378906 -0.94742188 7.26710937 -1.4375 8.1875 C-1.91058594 9.08855469 -2.38367188 9.98960937 -2.87109375 10.91796875 C-3.24363281 11.60503906 -3.61617187 12.29210937 -4 13 C-4.66 13 -5.32 13 -6 13 C-5.34215037 9.70319035 -4.10579427 7.15882078 -2.4375 4.25 C-1.98246094 3.45078125 -1.52742187 2.6515625 -1.05859375 1.828125 C-0.53458984 0.92320312 -0.53458984 0.92320312 0 0 Z " fill="#575958" transform="translate(226,179)"/>
<path d="M0 0 C3.34998521 1.11666174 3.79340222 1.74694925 5.6875 4.5625 C6.12449219 5.20316406 6.56148438 5.84382812 7.01171875 6.50390625 C7.33785156 6.99761719 7.66398437 7.49132812 8 8 C5 8 5 8 2 6 C2 5.01 2 4.02 2 3 C1.34 3 0.68 3 0 3 C0 2.01 0 1.02 0 0 Z " fill="#414141" transform="translate(383,175)"/>
<path d="M0 0 C1 2 1 2 0.1875 5.5 C-1 9 -1 9 -3 11 C-3.08096803 9.54257537 -3.13917774 8.08387193 -3.1875 6.625 C-3.22230469 5.81289062 -3.25710937 5.00078125 -3.29296875 4.1640625 C-3.19628906 3.44992188 -3.09960938 2.73578125 -3 2 C-2.01 1.34 -1.02 0.68 0 0 Z " fill="#3D3E3E" transform="translate(225,175)"/>
<path d="M0 0 C1.32 0.33 2.64 0.66 4 1 C3.67 2.32 3.34 3.64 3 5 C1.02 5.33 -0.96 5.66 -3 6 C-2 4 -1 2 0 0 Z " fill="#2B2B2B" transform="translate(204,298)"/>
<path d="M0 0 C0.99 0.33 1.98 0.66 3 1 C1.68 3.64 0.36 6.28 -1 9 C-1.66 8.34 -2.32 7.68 -3 7 C-2.01 4.69 -1.02 2.38 0 0 Z " fill="#3F3F3F" transform="translate(393,294)"/>
<path d="M0 0 C0.99 0.33 1.98 0.66 3 1 C2.34 3.31 1.68 5.62 1 8 C0.01 7.67 -0.98 7.34 -2 7 C-1.125 2.25 -1.125 2.25 0 0 Z " fill="#282828" transform="translate(235,207)"/>
<path d="M0 0 C0.78375 0.185625 1.5675 0.37125 2.375 0.5625 C4.97089775 1.25962266 4.97089775 1.25962266 7 0 C6.67 1.65 6.34 3.3 6 5 C5.34 5 4.68 5 4 5 C3.67 5.66 3.34 6.32 3 7 C2.01 4.69 1.02 2.38 0 0 Z " fill="#4A4B4B" transform="translate(209,201)"/>
<path d="M0 0 C0.66 0 1.32 0 2 0 C0.125 7.75 0.125 7.75 -1 10 C-1.99 9.67 -2.98 9.34 -4 9 C-2.68 6.03 -1.36 3.06 0 0 Z " fill="#424242" transform="translate(174,173)"/>
<path d="M0 0 C0 0.99 0 1.98 0 3 C-2.3125 4.125 -2.3125 4.125 -5 5 C-5.99 4.34 -6.98 3.68 -8 3 C-7.34 3 -6.68 3 -6 3 C-6 2.34 -6 1.68 -6 1 C-3 0 -3 0 0 0 Z " fill="#383838" transform="translate(304,145)"/>
<path d="M0 0 C1.175625 0.185625 1.175625 0.185625 2.375 0.375 C3.035 1.365 3.695 2.355 4.375 3.375 C0.745 3.375 -2.885 3.375 -6.625 3.375 C-2.625 0.375 -2.625 0.375 0 0 Z " fill="#323232" transform="translate(326.625,338.625)"/>
<path d="M0 0 C-0.33 1.65 -0.66 3.3 -1 5 C-2.32 5.33 -3.64 5.66 -5 6 C-5.33 5.01 -5.66 4.02 -6 3 C-2.25 0 -2.25 0 0 0 Z " fill="#343434" transform="translate(314,326)"/>
<path d="M0 0 C4.57782516 0.48187633 4.57782516 0.48187633 6.375 2.6875 C7.19215562 5.71097581 6.68693763 7.97747444 6 11 C5.67 11 5.34 11 5 11 C4.731875 9.9275 4.46375 8.855 4.1875 7.75 C3.13772173 4.43491072 2.25387672 2.56122354 0 0 Z " fill="#767676" transform="translate(320,310)"/>
<path d="M0 0 C1.98 0.495 1.98 0.495 4 1 C3.67 2.65 3.34 4.3 3 6 C1.68 6 0.36 6 -1 6 C-0.67 4.02 -0.34 2.04 0 0 Z " fill="#2C2C2C" transform="translate(234,232)"/>
<path d="M0 0 C0 3 0 3 -2.375 5.6875 C-5 8 -5 8 -7 8 C-7.33 6.68 -7.66 5.36 -8 4 C-7.236875 3.71125 -6.47375 3.4225 -5.6875 3.125 C-2.84970692 2.03730987 -2.84970692 2.03730987 0 0 Z " fill="#2D2D2D" transform="translate(354,329)"/>
<path d="M0 0 C0.66 0.66 1.32 1.32 2 2 C1.01 4.31 0.02 6.62 -1 9 C-1.66 9 -2.32 9 -3 9 C-3 6.36 -3 3.72 -3 1 C-2.01 0.67 -1.02 0.34 0 0 Z " fill="#3B3B3B" transform="translate(151,305)"/>
<path d="M0 0 C0.94875 0.04125 1.8975 0.0825 2.875 0.125 C1.6010411 2.16333424 0.26438077 4.16352126 -1.125 6.125 C-1.785 6.125 -2.445 6.125 -3.125 6.125 C-3.785 4.805 -4.445 3.485 -5.125 2.125 C-3.125 0.125 -3.125 0.125 0 0 Z " fill="#353535" transform="translate(404.125,236.875)"/>
<path d="M0 0 C0.99 0.33 1.98 0.66 3 1 C2.01 3.31 1.02 5.62 0 8 C-0.99 7.67 -1.98 7.34 -3 7 C-2.01 4.69 -1.02 2.38 0 0 Z " fill="#3D3D3D" transform="translate(155,215)"/>
<path d="M0 0 C-0.66 2.31 -1.32 4.62 -2 7 C-3.32 6.67 -4.64 6.34 -6 6 C-5.34 5.67 -4.68 5.34 -4 5 C-4 3.68 -4 2.36 -4 1 C-2 0 -2 0 0 0 Z " fill="#404040" transform="translate(198,201)"/>
<path d="M0 0 C0.66 0.33 1.32 0.66 2 1 C1.8125 2.875 1.8125 2.875 1 5 C-1.5625 6.25 -1.5625 6.25 -4 7 C-4 5.68 -4 4.36 -4 3 C-2 1.25 -2 1.25 0 0 Z " fill="#3A3A3A" transform="translate(301,338)"/>
<path d="M0 0 C1.32 0 2.64 0 4 0 C3.45773019 3.79588866 1.79872437 5.47211993 -1 8 C-0.67 5.36 -0.34 2.72 0 0 Z " fill="#383838" transform="translate(316,319)"/>
<path d="M0 0 C0.33 0.66 0.66 1.32 1 2 C0.0625 4.625 0.0625 4.625 -1 7 C-2.32 7 -3.64 7 -5 7 C-5.33 7.66 -5.66 8.32 -6 9 C-6 7.35 -6 5.7 -6 4 C-5.38125 3.896875 -4.7625 3.79375 -4.125 3.6875 C-1.63473516 3.12474627 -1.63473516 3.12474627 0 0 Z " fill="#272727" transform="translate(239,310)"/>
<path d="M0 0 C0.66 0.33 1.32 0.66 2 1 C1 3 1 3 -1 5 C-1.70710678 6.64991582 -2.37943989 8.31562256 -3 10 C-3.66 9.01 -4.32 8.02 -5 7 C-3.35 4.69 -1.7 2.38 0 0 Z " fill="#2B2B2B" transform="translate(174,250)"/>
<path d="M0 0 C1.19872272 3.59616816 0.72500287 4.28921639 -0.8125 7.625 C-1.16957031 8.42164063 -1.52664062 9.21828125 -1.89453125 10.0390625 C-3 12 -3 12 -5 13 C-4.54554036 11.58208592 -4.08625056 10.16571954 -3.625 8.75 C-3.24214844 7.56664062 -3.24214844 7.56664062 -2.8515625 6.359375 C-2.04826333 4.13372042 -1.10288338 2.09068328 0 0 Z " fill="#EAEAEA" transform="translate(134,245)"/>
<path d="M0 0 C0.99 0.66 1.98 1.32 3 2 C2.67 3.98 2.34 5.96 2 8 C1.01 8 0.02 8 -1 8 C-2 6 -2 6 -1.0625 2.875 C-0.5365625 1.451875 -0.5365625 1.451875 0 0 Z " fill="#3B3B3B" transform="translate(226,202)"/>
<path d="M0 0 C1.65 0 3.3 0 5 0 C5.93423645 3.01031744 6.04449911 3.86650268 5 7 C1.125 2.25 1.125 2.25 0 0 Z " fill="#262626" transform="translate(258,203)"/>
<path d="M0 0 C2.9375 0.8125 2.9375 0.8125 6 2 C6.33 2.99 6.66 3.98 7 5 C6.01 6.485 6.01 6.485 5 8 C2.525 4.04 2.525 4.04 0 0 Z " fill="#4B4B4B" transform="translate(358,200)"/>
<path d="M0 0 C0.33 0.66 0.66 1.32 1 2 C1.66 2 2.32 2 3 2 C3.33 3.32 3.66 4.64 4 6 C3.01 6.66 2.02 7.32 1 8 C0.01 5.69 -0.98 3.38 -2 1 C-1.34 0.67 -0.68 0.34 0 0 Z " fill="#3A3A3A" transform="translate(206,190)"/>
<path d="M0 0 C0.66 0.66 1.32 1.32 2 2 C0.35 4.31 -1.3 6.62 -3 9 C-3.66 8.67 -4.32 8.34 -5 8 C-2.25 1.125 -2.25 1.125 0 0 Z " fill="#373737" transform="translate(115,310)"/>
<path d="M0 0 C2.18975773 3.28463659 2.99806563 6.20696275 4 10 C3.34 10 2.68 10 2 10 C2 9.34 2 8.68 2 8 C1.34 8 0.68 8 0 8 C-0.38063221 5.6739143 -0.71269945 3.33944736 -1 1 C-0.67 0.67 -0.34 0.34 0 0 Z " fill="#444444" transform="translate(277,214)"/>
<path d="M0 0 C0.33 0.99 0.66 1.98 1 3 C0.34 3.66 -0.32 4.32 -1 5 C-3.0625 4.8125 -3.0625 4.8125 -5 4 C-5.33 3.01 -5.66 2.02 -6 1 C-3.92446352 0.4465236 -2.15634036 0 0 0 Z " fill="#2B2B2B" transform="translate(297,340)"/>
<path d="M0 0 C0.99 0.33 1.98 0.66 3 1 C3 1.66 3 2.32 3 3 C4.32 3 5.64 3 7 3 C7 3.66 7 4.32 7 5 C4.125 4.6875 4.125 4.6875 1 4 C0.34 3.01 -0.32 2.02 -1 1 C-0.67 0.67 -0.34 0.34 0 0 Z " fill="#3C3C3C" transform="translate(289,341)"/>
<path d="M0 0 C1.15941038 3.47823115 0.70820884 5.45895578 0 9 C-0.99 8.67 -1.98 8.34 -3 8 C-1.125 1.125 -1.125 1.125 0 0 Z " fill="#2E2E2E" transform="translate(391,295)"/>
<path d="M0 0 C1.5 1.375 1.5 1.375 3 3 C3 3.66 3 4.32 3 5 C3.66 5.33 4.32 5.66 5 6 C4.01 6.495 4.01 6.495 3 7 C0.875 6.0625 0.875 6.0625 -1 5 C-0.67 3.35 -0.34 1.7 0 0 Z " fill="#303030" transform="translate(369,162)"/>
<path d="M0 0 C0.99 1.32 1.98 2.64 3 4 C2.34 5.32 1.68 6.64 1 8 C-1 5 -1 5 -0.625 2.3125 C-0.41875 1.549375 -0.2125 0.78625 0 0 Z " fill="#3A3A3A" transform="translate(222,153)"/>
<path d="M0 0 C-1.0975223 2.99324263 -1.67682892 3.84610901 -4.625 5.25 C-5.40875 5.4975 -6.1925 5.745 -7 6 C-7 5.01 -7 4.02 -7 3 C-2.77777778 0 -2.77777778 0 0 0 Z " fill="#444444" transform="translate(284,151)"/>
<path d="M0 0 C2 2 2 2 2.125 4.625 C2.08375 5.40875 2.0425 6.1925 2 7 C0.68 6.34 -0.64 5.68 -2 5 C-1.125 1.125 -1.125 1.125 0 0 Z " fill="#2B2B2B" transform="translate(219,151)"/>
<path d="M0 0 C0.66 0.99 1.32 1.98 2 3 C1.67 3.99 1.34 4.98 1 6 C0.01 6.33 -0.98 6.66 -2 7 C-2.33 6.01 -2.66 5.02 -3 4 C-2.34 4 -1.68 4 -1 4 C-0.67 2.68 -0.34 1.36 0 0 Z " fill="#2D2D2D" transform="translate(144,318)"/>
<path d="M0 0 C0.99 0.33 1.98 0.66 3 1 C1.02 3.97 1.02 3.97 -1 7 C-1.66 6.67 -2.32 6.34 -3 6 C-2.67 4.68 -2.34 3.36 -2 2 C-1.34 2 -0.68 2 0 2 C0 1.34 0 0.68 0 0 Z " fill="#3E3E3E" transform="translate(387,305)"/>
<path d="M0 0 C0.33 0.99 0.66 1.98 1 3 C0.01 4.485 0.01 4.485 -1 6 C-1.99 6 -2.98 6 -4 6 C-3.6875 4.125 -3.6875 4.125 -3 2 C-2.01 1.34 -1.02 0.68 0 0 Z " fill="#3E3E3E" transform="translate(350,298)"/>
<path d="M0 0 C2.05078125 0.03255208 4.1015625 0.06510417 6.15234375 0.09765625 C6.15234375 0.75765625 6.15234375 1.41765625 6.15234375 2.09765625 C3.23751597 2.90733063 1.69121158 3.31611618 -1.16015625 2.16015625 C-1.71703125 1.80953125 -2.27390625 1.45890625 -2.84765625 1.09765625 C-1.84765625 0.09765625 -1.84765625 0.09765625 0 0 Z " fill="#353535" transform="translate(362.84765625,236.90234375)"/>
<path d="M0 0 C1.65 0.33 3.3 0.66 5 1 C3.71937515 2.7074998 2.38232443 4.37373596 1 6 C0.34 6 -0.32 6 -1 6 C-0.67 4.02 -0.34 2.04 0 0 Z " fill="#2E2E2E" transform="translate(178,234)"/>
<path d="M0 0 C2 3 2 3 2 6 C0.68 6.33 -0.64 6.66 -2 7 C-2 5.35 -2 3.7 -2 2 C-1.34 2 -0.68 2 0 2 C0 1.34 0 0.68 0 0 Z " fill="#353535" transform="translate(282,230)"/>
<path d="M0 0 C0.99 0.33 1.98 0.66 3 1 C2.67 2.65 2.34 4.3 2 6 C1.01 6 0.02 6 -1 6 C-0.67 4.02 -0.34 2.04 0 0 Z " fill="#383737" transform="translate(233,179)"/>
<path d="M0 0 C1.32 0 2.64 0 4 0 C4 0.66 4 1.32 4 2 C4.99 2.33 5.98 2.66 7 3 C5.02 3.99 5.02 3.99 3 5 C1.5 3.625 1.5 3.625 0 2 C0 1.34 0 0.68 0 0 Z " fill="#2C2C2C" transform="translate(195,337)"/>
<path d="M0 0 C0 0.99 0 1.98 0 3 C-2.31 3 -4.62 3 -7 3 C-4.49955934 -0.00052879 -4.2621484 0 0 0 Z " fill="#303030" transform="translate(176,295)"/>
<path d="M0 0 C1.9451 2.91765 2.45276317 4.62537285 3 8 C2.01 8.495 2.01 8.495 1 9 C0.63877119 7.68942607 0.28619689 6.37646376 -0.0625 5.0625 C-0.35833984 3.96615234 -0.35833984 3.96615234 -0.66015625 2.84765625 C-0.77230469 2.23792969 -0.88445312 1.62820312 -1 1 C-0.67 0.67 -0.34 0.34 0 0 Z " fill="#4C4C4C" transform="translate(288,245)"/>
<path d="M0 0 C0.93423645 3.01031744 1.04449911 3.86650268 0 7 C-0.66 7 -1.32 7 -2 7 C-2.6875 5.1875 -2.6875 5.1875 -3 3 C-1.5625 1.25 -1.5625 1.25 0 0 Z " fill="#2D2D2D" transform="translate(287,244)"/>
<path d="M0 0 C0.99 0 1.98 0 3 0 C3.125 2.875 3.125 2.875 3 6 C2.34 6.66 1.68 7.32 1 8 C0.34 5.69 -0.32 3.38 -1 1 C-0.67 0.67 -0.34 0.34 0 0 Z " fill="#2B2B2B" transform="translate(265,213)"/>
<path d="M0 0 C1.32 0 2.64 0 4 0 C3.34 1.65 2.68 3.3 2 5 C1.01 5 0.02 5 -1 5 C-0.67 3.35 -0.34 1.7 0 0 Z " fill="#363636" transform="translate(380,192)"/>
<path d="M0 0 C1.65 0.99 3.3 1.98 5 3 C4.67 3.99 4.34 4.98 4 6 C2.68 5.34 1.36 4.68 0 4 C0 2.68 0 1.36 0 0 Z " fill="#575A59" transform="translate(279,187)"/>
<path d="M0 0 C1.32 0 2.64 0 4 0 C4 0.99 4 1.98 4 3 C2.125 3.625 2.125 3.625 0 4 C-0.66 3.34 -1.32 2.68 -2 2 C-1.34 1.34 -0.68 0.68 0 0 Z " fill="#3E3E3E" transform="translate(293,181)"/>
<path d="M0 0 C3.37462715 0.54723683 5.08235 1.0549 8 3 C8 3.66 8 4.32 8 5 C4.20411134 4.45773019 2.52788007 2.79872437 0 0 Z " fill="#F1F1F1" transform="translate(373,157)"/>
<path d="M0 0 C0.75 1.75 0.75 1.75 1 4 C-0.9375 6.25 -0.9375 6.25 -3 8 C-3 7.34 -3 6.68 -3 6 C-3.66 5.67 -4.32 5.34 -5 5 C-4.01 5 -3.02 5 -2 5 C-1.34 3.35 -0.68 1.7 0 0 Z " fill="#2C2C2C" transform="translate(185,155)"/>
</svg>
