<?xml version="1.0" encoding="UTF-8"?>
<svg version="1.1" xmlns="http://www.w3.org/2000/svg" width="275" height="183">
<path d="M0 0 C90.75 0 181.5 0 275 0 C275 60.39 275 120.78 275 183 C184.25 183 93.5 183 0 183 C0 122.61 0 62.22 0 0 Z " fill="#FEFEFE" transform="translate(0,0)"/>
<path d="M0 0 C90.75 0 181.5 0 275 0 C275 20.13 275 40.26 275 61 C184.25 61 93.5 61 0 61 C0 40.87 0 20.74 0 0 Z " fill="#118706" transform="translate(0,122)"/>
<path d="M0 0 C90.75 0 181.5 0 275 0 C275 20.13 275 40.26 275 61 C184.25 61 93.5 61 0 61 C0 40.87 0 20.74 0 0 Z " fill="#FF9832" transform="translate(0,0)"/>
<path d="M0 0 C6.86852971 4.00223943 10.37320671 8.78878101 13.03125 16.18359375 C14.36886039 22.88426467 12.28995295 30.48945342 8.77734375 36.234375 C4.41298025 41.78793837 -2.03092594 45.54937782 -9.09765625 46.45703125 C-16.8711625 46.78144724 -22.90554824 44.70788664 -28.82421875 39.57421875 C-34.36184983 33.61271961 -36.66570283 26.8746521 -36.37890625 18.76953125 C-35.24314166 11.60880596 -31.51437672 5.72239748 -25.77734375 1.3671875 C-17.35585889 -4.14406501 -8.90524748 -4.53101501 0 0 Z " fill="#F4F4F9" transform="translate(148.96875,69.81640625)"/>
<path d="M0 0 C6.86852971 4.00223943 10.37320671 8.78878101 13.03125 16.18359375 C14.36886039 22.88426467 12.28995295 30.48945342 8.77734375 36.234375 C4.41298025 41.78793837 -2.03092594 45.54937782 -9.09765625 46.45703125 C-16.8711625 46.78144724 -22.90554824 44.70788664 -28.82421875 39.57421875 C-34.36184983 33.61271961 -36.66570283 26.8746521 -36.37890625 18.76953125 C-35.24314166 11.60880596 -31.51437672 5.72239748 -25.77734375 1.3671875 C-17.35585889 -4.14406501 -8.90524748 -4.53101501 0 0 Z M-25.34375 4.55859375 C-31.09218192 10.30702567 -32.37947106 15.10640827 -32.96875 23.18359375 C-32.59968925 29.58388407 -30.59747701 33.7806583 -25.96875 38.18359375 C-24.97875 38.18359375 -23.98875 38.18359375 -22.96875 38.18359375 C-22.63875 39.17359375 -22.30875 40.16359375 -21.96875 41.18359375 C-11.35065162 43.59207346 -11.35065162 43.59207346 -0.96875 41.18359375 C-0.63875 40.19359375 -0.30875 39.20359375 0.03125 38.18359375 C0.9284375 37.99796875 0.9284375 37.99796875 1.84375 37.80859375 C5.34745167 36.80753613 6.1818919 35.32750252 8.03125 32.18359375 C9.96439199 25.40773381 11.24174799 17.77686036 8.03125 11.18359375 C7.04125 10.85359375 6.05125 10.52359375 5.03125 10.18359375 C4.9075 9.58546875 4.78375 8.98734375 4.65625 8.37109375 C3.65519238 4.86739208 2.17515877 4.03295185 -0.96875 2.18359375 C-9.40479024 -0.22319502 -18.11579438 -1.16353779 -25.34375 4.55859375 Z " fill="#0D0D88" transform="translate(148.96875,69.81640625)"/>
<path d="M0 0 C1.94337637 2.91506455 2.27674667 3.82971692 2.5625 7.125 C2.56686899 10.77463966 2.56686899 10.77463966 4 12 C4 8.04 4 4.08 4 0 C4.33 0 4.66 0 5 0 C5 3.96 5 7.92 5 12 C5.33 10.35 5.66 8.7 6 7 C6.65146849 4.66237777 7.31526605 2.32809543 8 0 C8.68707555 2.49064888 9 4.37886292 9 7 C9.99 5.35 10.98 3.7 12 2 C12.33 2.66 12.66 3.32 13 4 C12.67 4.66 12.34 5.32 12 6 C12.99 6 13.98 6 15 6 C15 6.66 15 7.32 15 8 C14.34 8 13.68 8 13 8 C13.33 8.66 13.66 9.32 14 10 C14.66 10 15.32 10 16 10 C16 10.66 16 11.32 16 12 C17.65 12 19.3 12 21 12 C19.68 12.99 18.36 13.98 17 15 C17.99 15.66 18.98 16.32 20 17 C18.02 17.33 16.04 17.66 14 18 C16.31 18.66 18.62 19.32 21 20 C18.50935112 20.68707555 16.62113708 21 14 21 C14.66 21.66 15.32 22.32 16 23 C15.34 23.33 14.68 23.66 14 24 C13.67 24.66 13.34 25.32 13 26 C12.34 25.67 11.68 25.34 11 25 C10.67 25.99 10.34 26.98 10 28 C9.34 27.01 8.68 26.02 8 25 C7.34 25.33 6.68 25.66 6 26 C5.505 23.525 5.505 23.525 5 21 C5 24.96 5 28.92 5 33 C4.67 33 4.34 33 4 33 C3.67 29.04 3.34 25.08 3 21 C3 21.33 3 21.66 3 22 C2.67240066 24.33414529 2.33926947 26.66752239 2 29 C0.68 27.68 -0.64 26.36 -2 25 C-2.99 25.99 -3.98 26.98 -5 28 C-5.66 27.67 -6.32 27.34 -7 27 C-5.68 25.35 -4.36 23.7 -3 22 C-3.7425 21.855625 -4.485 21.71125 -5.25 21.5625 C-7.52027739 21.09812508 -9.75759479 20.58136431 -12 20 C-9.69 19.34 -7.38 18.68 -5 18 C-7.64 17.67 -10.28 17.34 -13 17 C-13 16.67 -13 16.34 -13 16 C-9.535 15.505 -9.535 15.505 -6 15 C-7.98 14.34 -9.96 13.68 -12 13 C-12 12.67 -12 12.34 -12 12 C-10.35 12 -8.7 12 -7 12 C-7 11.34 -7 10.68 -7 10 C-5.68 10.33 -4.36 10.66 -3 11 C-3 10.34 -3 9.68 -3 9 C-2.34 9 -1.68 9 -1 9 C-0.29925156 5.846632 0 3.27275026 0 0 Z " fill="#6E6EB1" transform="translate(133,75)"/>
<path d="M0 0 C2 2 2 2 2 5 C2.99 5.33 3.98 5.66 5 6 C6.68885947 13.67781496 7.27232834 19.42557221 5 27 C1.23634193 25.15147768 -2.36872851 23.09496432 -6 21 C-4.68 20.67 -3.36 20.34 -2 20 C-4.31 19.34 -6.62 18.68 -9 18 C-9 17.67 -9 17.34 -9 17 C-8.05125 16.896875 -7.1025 16.79375 -6.125 16.6875 C-2.70892499 16.31460705 -2.70892499 16.31460705 -1 13 C-1.66 12.67 -2.32 12.34 -3 12 C-3 11.34 -3 10.68 -3 10 C-4.32 10.33 -5.64 10.66 -7 11 C-6 8 -6 8 -5 7 C-5.99 6.67 -6.98 6.34 -8 6 C-8.33 6.33 -8.66 6.66 -9 7 C-9.99 7.495 -9.99 7.495 -11 8 C-11 6.35 -11 4.7 -11 3 C-11.33 5.97 -11.66 8.94 -12 12 C-13.65 12 -15.3 12 -17 12 C-17.33 9.36 -17.66 6.72 -18 4 C-18.33 5.32 -18.66 6.64 -19 8 C-19.83878455 6.71186658 -20.67086783 5.41936744 -21.5 4.125 C-21.9640625 3.40570313 -22.428125 2.68640625 -22.90625 1.9453125 C-24 0 -24 0 -24 -2 C-23.34 -2 -22.68 -2 -22 -2 C-22 -2.66 -22 -3.32 -22 -4 C-13.62121621 -5.93356549 -7.05965978 -4.75446475 0 0 Z " fill="#E9E9F2" transform="translate(152,75)"/>
<path d="M0 0 C0.33 0.66 0.66 1.32 1 2 C0.67 2.66 0.34 3.32 0 4 C0.99 4 1.98 4 3 4 C3 4.66 3 5.32 3 6 C2.34 6 1.68 6 1 6 C1.33 6.66 1.66 7.32 2 8 C2.66 8 3.32 8 4 8 C4 8.66 4 9.32 4 10 C5.65 10 7.3 10 9 10 C7.68 10.99 6.36 11.98 5 13 C5.99 13.66 6.98 14.32 8 15 C6.02 15.33 4.04 15.66 2 16 C4.31 16.66 6.62 17.32 9 18 C6.50935112 18.68707555 4.62113708 19 2 19 C2.66 19.66 3.32 20.32 4 21 C3.34 21.33 2.68 21.66 2 22 C1.67 22.66 1.34 23.32 1 24 C0.34 23.67 -0.32 23.34 -1 23 C-1.33 23.99 -1.66 24.98 -2 26 C-4.3111349 22.53329764 -4.24298883 21.14345123 -4.1875 17.0625 C-4.18105469 16.02222656 -4.17460937 14.98195313 -4.16796875 13.91015625 C-3.86808802 8.7145483 -2.08388118 4.71138353 0 0 Z " fill="#8989C0" transform="translate(145,77)"/>
<path d="M0 0 C0.99 0.99 1.98 1.98 3 3 C3.99 2.34 4.98 1.68 6 1 C6 0.67 6 0.34 6 0 C12.52307692 0.49230769 12.52307692 0.49230769 14.9375 3.0625 C15.288125 3.701875 15.63875 4.34125 16 5 C14.1875 7.5 14.1875 7.5 12 10 C11.01 10 10.02 10 9 10 C8.67 10.99 8.34 11.98 8 13 C6.0625 13.75 6.0625 13.75 4 14 C2 13 2 13 0.875 10.375 C-0.05654649 6.78189212 -0.14783375 3.69584376 0 0 Z " fill="#D2D2E7" transform="translate(140,98)"/>
<path d="M0 0 C2.97 0.495 2.97 0.495 6 1 C6.04898438 1.59167969 6.09796875 2.18335937 6.1484375 2.79296875 C6.64823587 8.07532048 7.61700742 12.23401484 10 17 C3.77104914 18.13253652 -0.91748904 17.70366626 -7 16 C-5.87548273 13.0280615 -4.77706209 10.66559313 -3 8 C-2.34 8 -1.68 8 -1 8 C-0.67 8.66 -0.34 9.32 0 10 C0.185625 8.72125 0.37125 7.4425 0.5625 6.125 C0.66691406 5.40570313 0.77132812 4.68640625 0.87890625 3.9453125 C1.1684297 1.91859333 1.1684297 1.91859333 0 0 Z " fill="#EDEDF5" transform="translate(134,95)"/>
<path d="M0 0 C-1.32 1.65 -2.64 3.3 -4 5 C-2.68 4.01 -1.36 3.02 0 2 C0.66 2.33 1.32 2.66 2 3 C2.75 5.375 2.75 5.375 3 8 C2.01 9.485 2.01 9.485 1 11 C1 9.35 1 7.7 1 6 C0.34 6 -0.32 6 -1 6 C-1.268125 6.78375 -1.53625 7.5675 -1.8125 8.375 C-3 11 -3 11 -6 13 C-6 12.34 -6 11.68 -6 11 C-6.61875 10.9175 -7.2375 10.835 -7.875 10.75 C-10 10 -10 10 -11.3125 8.125 C-12 6 -12 6 -11 3 C-3.93258427 -1.96629213 -3.93258427 -1.96629213 0 0 Z " fill="#D0D0E5" transform="translate(132,97)"/>
<path d="M0 0 C2.31 0 4.62 0 7 0 C7 5.28 7 10.56 7 16 C6.34 15.67 5.68 15.34 5 15 C4.59270772 12.67843403 4.25561323 10.3431213 4 8 C3.67 9.32 3.34 10.64 3 12 C2.16121545 10.71186658 1.32913217 9.41936744 0.5 8.125 C0.0359375 7.40570313 -0.428125 6.68640625 -0.90625 5.9453125 C-2 4 -2 4 -2 2 C-1.34 2 -0.68 2 0 2 C0 1.34 0 0.68 0 0 Z " fill="#F1F1F7" transform="translate(130,71)"/>
<path d="M0 0 C1.99954746 -0.04254356 4.00041636 -0.04080783 6 0 C7.57960269 1.57960269 7.16986544 3.19536816 7.1875 5.375 C7.20167969 6.16648437 7.21585938 6.95796875 7.23046875 7.7734375 C7 10 7 10 5 13 C4.67 11.35 4.34 9.7 4 8 C4 11.96 4 15.92 4 20 C3.67 20 3.34 20 3 20 C2.96261719 19.16855469 2.92523438 18.33710937 2.88671875 17.48046875 C2.82097656 16.39378906 2.75523437 15.30710937 2.6875 14.1875 C2.62949219 13.10855469 2.57148438 12.02960938 2.51171875 10.91796875 C1.95222223 7.72755731 1.3256086 7.07282506 -1 5 C-0.6875 2.3125 -0.6875 2.3125 0 0 Z " fill="#16168C" transform="translate(134,88)"/>
<path d="M0 0 C0.66 3.3 1.32 6.6 2 10 C-1.3 10 -4.6 10 -8 10 C-7.34 9.01 -6.68 8.02 -6 7 C-6.66 6.67 -7.32 6.34 -8 6 C-8 5.34 -8 4.68 -8 4 C-2.58823529 0 -2.58823529 0 0 0 Z " fill="#EEEEF5" transform="translate(157,81)"/>
<path d="M0 0 C2 1 2 1 3.0625 3.1875 C4.03990465 6.11971394 4.5734184 8.94283186 5 12 C3.68 12 2.36 12 1 12 C1 11.34 1 10.68 1 10 C0.34 10 -0.32 10 -1 10 C-2.38938077 8.03852126 -3.7260411 6.03833424 -5 4 C-3.35 2.68 -1.7 1.36 0 0 Z " fill="#C3C3DF" transform="translate(127,72)"/>
<path d="M0 0 C0.99 1.485 0.99 1.485 2 3 C4.00196506 3.28599501 6.00888981 3.56690348 8.02734375 3.69140625 C10 4 10 4 13 6 C10.69 6 8.38 6 6 6 C6.66 6.66 7.32 7.32 8 8 C7.01 8.495 7.01 8.495 6 9 C5.67 9.66 5.34 10.32 5 11 C4.34 10.67 3.68 10.34 3 10 C2.67 10.99 2.34 11.98 2 13 C-0.20914 9.68629 -0.22481553 8.6553979 -0.125 4.8125 C-0.10695312 3.91144531 -0.08890625 3.01039062 -0.0703125 2.08203125 C-0.04710937 1.39496094 -0.02390625 0.70789063 0 0 Z " fill="#5E5EA8" transform="translate(141,90)"/>
<path d="M0 0 C6.80203375 -0.37634203 11.75690073 0.22528921 18 3 C17.67 3.66 17.34 4.32 17 5 C14.9375 5.625 14.9375 5.625 13 6 C13 5.34 13 4.68 13 4 C8.71 4 4.42 4 0 4 C0.66 3.34 1.32 2.68 2 2 C1.34 1.34 0.68 0.68 0 0 Z " fill="#242492" transform="translate(132,67)"/>
<path d="M0 0 C1.5 1.375 1.5 1.375 3 3 C3 3.66 3 4.32 3 5 C3.99 5.33 4.98 5.66 6 6 C7.1875 9.5625 7.1875 9.5625 8 13 C4.25 14.125 4.25 14.125 2 13 C0.0977156 8.56133639 -0.19188324 4.79708091 0 0 Z " fill="#C9C9E2" transform="translate(140,98)"/>
<path d="M0 0 C0.66 0.33 1.32 0.66 2 1 C2 1.99 2 2.98 2 4 C2.66 4.33 3.32 4.66 4 5 C0.39042389 8.2910841 -2.12637153 9.54663921 -7 10 C-6.67 9.01 -6.34 8.02 -6 7 C-5.34 7 -4.68 7 -4 7 C-3.896875 6.401875 -3.79375 5.80375 -3.6875 5.1875 C-2.91123545 2.71756736 -1.92911079 1.67748765 0 0 Z " fill="#D7D7E9" transform="translate(152,76)"/>
<path d="M0 0 C1.9375 0.8125 1.9375 0.8125 4 2 C4.33 2.99 4.66 3.98 5 5 C5.66 5 6.32 5 7 5 C7 5.66 7 6.32 7 7 C7.66 7 8.32 7 9 7 C9 7.66 9 8.32 9 9 C7.948125 8.690625 6.89625 8.38125 5.8125 8.0625 C2.87247604 7.24314906 -0.00161623 6.54516069 -3 6 C-2 4 -1 2 0 0 Z " fill="#DCDCEC" transform="translate(121,77)"/>
<path d="M0 0 C0.99 0 1.98 0 3 0 C3 0.66 3 1.32 3 2 C3.66 2.33 4.32 2.66 5 3 C5.66666667 4.33333333 6.33333333 5.66666667 7 7 C8.3050581 8.68889872 9.63360658 10.3603279 11 12 C9.68 12.33 8.36 12.66 7 13 C0.29612756 4.738041 0.29612756 4.738041 0 0 Z " fill="#0B0B87" transform="translate(114,97)"/>
<path d="M0 0 C0.33 0 0.66 0 1 0 C1 3.96 1 7.92 1 12 C1.33 10.35 1.66 8.7 2 7 C2.65146849 4.66237777 3.31526605 2.32809543 4 0 C5.14889133 3.93905597 5.52582695 7.93565958 6 12 C5.01 12.66 4.02 13.32 3 14 C1.68 13.34 0.36 12.68 -1 12 C-0.67 8.04 -0.34 4.08 0 0 Z " fill="#49499F" transform="translate(137,75)"/>
<path d="M0 0 C-0.49371094 0.33773437 -0.98742187 0.67546875 -1.49609375 1.0234375 C-2.13675781 1.46945313 -2.77742188 1.91546875 -3.4375 2.375 C-4.07558594 2.81585938 -4.71367188 3.25671875 -5.37109375 3.7109375 C-7.13740928 4.92160853 -7.13740928 4.92160853 -8 7 C-8.99 6.67 -9.98 6.34 -11 6 C-11.75 4.0625 -11.75 4.0625 -12 2 C-11.67 1.34 -11.34 0.68 -11 0 C-6.97268577 -0.83585767 -3.93421227 -1.15507777 0 0 Z " fill="#EDEDF4" transform="translate(129,96)"/>
<path d="M0 0 C-1.375 1.5 -1.375 1.5 -3 3 C-3.66 3 -4.32 3 -5 3 C-5.33 3.66 -5.66 4.32 -6 5 C-7.31403276 5.70394612 -8.6520257 6.36345658 -10 7 C-11.67334039 7.98879205 -13.34151823 8.98648336 -15 10 C-13.4411666 6.17377257 -11.04566418 3.74852621 -8 1 C-5.07175348 0.02391783 -3.04386724 -0.08226668 0 0 Z " fill="#090986" transform="translate(135,68)"/>
<path d="M0 0 C3.36179774 1.44077046 5.59156268 3.24750021 8 6 C8 6.66 8 7.32 8 8 C7.01 8 6.02 8 5 8 C4.67 8.66 4.34 9.32 4 10 C1.7448078 7.7448078 1.02276532 5.9952413 0 3 C0 2.01 0 1.02 0 0 Z " fill="#EDEDF5" transform="translate(144,100)"/>
<path d="M0 0 C8.57142857 1 8.57142857 1 12 2 C11.67 3.65 11.34 5.3 11 7 C7.22272911 5.18690997 3.62730178 3.0926741 0 1 C0 0.67 0 0.34 0 0 Z " fill="#F2F2F8" transform="translate(146,95)"/>
<path d="M0 0 C0.66 0.66 1.32 1.32 2 2 C2.66 1.34 3.32 0.68 4 0 C4 3.63 4 7.26 4 11 C2.68 10.67 1.36 10.34 0 10 C0 6.7 0 3.4 0 0 Z " fill="#262693" transform="translate(113,86)"/>
<path d="M0 0 C0.33 0.66 0.66 1.32 1 2 C-3.30769231 7.78461538 -3.30769231 7.78461538 -6.8125 8.875 C-7.8953125 8.936875 -7.8953125 8.936875 -9 9 C-8.75 7.125 -8.75 7.125 -8 5 C-6.0625 3.875 -6.0625 3.875 -4 3 C-3.34 2.34 -2.68 1.68 -2 1 C-1.34 0.67 -0.68 0.34 0 0 Z " fill="#0E0E88" transform="translate(157,103)"/>
<path d="M0 0 C2.475 0.99 2.475 0.99 5 2 C1.9166097 5.0833903 -1.28094782 5.91789602 -5.6171875 6.125 C-8.08135418 6.125 -10.53749932 6.08759884 -13 6 C-13 5.67 -13 5.34 -13 5 C-8.545 4.505 -8.545 4.505 -4 4 C-4 3.34 -4 2.68 -4 2 C-2.68 2 -1.36 2 0 2 C0 1.34 0 0.68 0 0 Z " fill="#2B2B94" transform="translate(145,110)"/>
<path d="M0 0 C1.98 0.66 3.96 1.32 6 2 C6 2.99 6 3.98 6 5 C4.741875 4.87625 3.48375 4.7525 2.1875 4.625 C1.12595703 4.52058594 1.12595703 4.52058594 0.04296875 4.4140625 C-2 4 -2 4 -5 2 C-3.35 2 -1.7 2 0 2 C0 1.34 0 0.68 0 0 Z " fill="#7575B6" transform="translate(126,85)"/>
<path d="M0 0 C0.33 1.32 0.66 2.64 1 4 C-2.3 4 -5.6 4 -9 4 C-7 1 -7 1 -5.0625 0.3125 C-3 0 -3 0 0 0 Z " fill="#FBFBFC" transform="translate(158,87)"/>
<path d="M0 0 C1.32 0 2.64 0 4 0 C2.70700306 2.88437779 1.34058637 4.87219421 -1 7 C-1.99 6.67 -2.98 6.34 -4 6 C-2.25 3 -2.25 3 0 0 Z " fill="#F5F5F9" transform="translate(148,75)"/>
<path d="M0 0 C0 0.66 0 1.32 0 2 C1.65 2 3.3 2 5 2 C1.55549263 4.29633824 -0.93812283 4.54016485 -5 5 C-4.625 3.0625 -4.625 3.0625 -4 1 C-2 0 -2 0 0 0 Z " fill="#6A6AB0" transform="translate(149,85)"/>
<path d="M0 0 C1.875 1.25 1.875 1.25 2.875 4.25 C-0.125 5.25 -0.125 5.25 -2.8125 3.9375 C-3.575625 3.380625 -4.33875 2.82375 -5.125 2.25 C-5.125 1.59 -5.125 0.93 -5.125 0.25 C-2.125 -0.75 -2.125 -0.75 0 0 Z " fill="#18188D" transform="translate(127.125,108.75)"/>
<path d="M0 0 C1.485 0.99 1.485 0.99 3 2 C5.64632287 1.6878236 5.64632287 1.6878236 8 1 C7.01 2.32 6.02 3.64 5 5 C4.34 4.67 3.68 4.34 3 4 C2.67 4.99 2.34 5.98 2 7 C0 4 0 4 0 0 Z " fill="#7878B8" transform="translate(141,96)"/>
<path d="M0 0 C2.56616632 3.84924948 2.55097676 6.4349304 3 11 C2.01 11 1.02 11 0 11 C-0.93423645 7.98968256 -1.04449911 7.13349732 0 4 C0 2.68 0 1.36 0 0 Z " fill="#5555A5" transform="translate(133,75)"/>
<path d="M0 0 C1.98 0.66 3.96 1.32 6 2 C5.67 2.66 5.34 3.32 5 4 C2.9375 4.625 2.9375 4.625 1 5 C1 4.34 1 3.68 1 3 C-0.32 2.67 -1.64 2.34 -3 2 C-2.01 2 -1.02 2 0 2 C0 1.34 0 0.68 0 0 Z " fill="#1B1B8D" transform="translate(144,68)"/>
<path d="M0 0 C0.66 0.33 1.32 0.66 2 1 C2 2.65 2 4.3 2 6 C0.68 5.67 -0.64 5.34 -2 5 C-1.125 1.125 -1.125 1.125 0 0 Z " fill="#2B2B95" transform="translate(160,85)"/>
<path d="M0 0 C0 3.20395416 -0.74335022 5.09399739 -2 8 C-3.32 7.67 -4.64 7.34 -6 7 C-4.02 4.69 -2.04 2.38 0 0 Z " fill="#17178C" transform="translate(122,72)"/>
<path d="M0 0 C0.66 0.33 1.32 0.66 2 1 C1.67 3.31 1.34 5.62 1 8 C0.01 7.01 -0.98 6.02 -2 5 C-1.34 3.35 -0.68 1.7 0 0 Z " fill="#4B4BA0" transform="translate(134,96)"/>
<path d="M0 0 C0.99 0.33 1.98 0.66 3 1 C2.6875 2.875 2.6875 2.875 2 5 C1.01 5.66 0.02 6.32 -1 7 C-0.67 4.69 -0.34 2.38 0 0 Z " fill="#15158B" transform="translate(159,90)"/>
</svg>
